<?xml version="1.0" encoding="UTF-8"?>
<svg width="416px" height="288px" viewBox="0 0 416 288" version="1.1" xmlns="http://www.w3.org/2000/svg" xmlns:xlink="http://www.w3.org/1999/xlink">
    <!-- Generator: Sketch 51.2 (57519) - http://www.bohemiancoding.com/sketch -->
    <title>mail-svg</title>
    <desc>Created with Sketch.</desc>
    <defs></defs>
    <g id="Page-1" stroke="none" stroke-width="1" fill="none" fill-rule="evenodd">
        <g id="mail-svg" fill="#000000" fill-rule="nonzero">
            <path d="M412.6,35.3 L305,144.9 C304.2,145.7 304.2,146.9 305,147.7 L380.3,227.9 C385.4,233 385.4,241.2 380.3,246.3 C377.8,248.8 374.4,250.1 371.1,250.1 C367.8,250.1 364.4,248.8 361.9,246.3 L286.9,166.4 C286.1,165.6 284.8,165.6 284,166.4 L265.7,185 C250.4,200.5 230.1,209.1 208.3,209.2 C186.2,209.3 165.2,200 149.7,184.3 L132.1,166.4 C131.3,165.6 130,165.6 129.2,166.4 L54.2,246.3 C51.7,248.8 48.3,250.1 45,250.1 C41.7,250.1 38.3,248.8 35.8,246.3 C30.7,241.2 30.7,233 35.8,227.9 L111.1,147.7 C111.8,146.9 111.8,145.7 111.1,144.9 L3.4,35.3 C2.1,34 0,34.9 0,36.7 L0,256 C0,273.6 14.4,288 32,288 L384,288 C401.6,288 416,273.6 416,256 L416,36.7 C416,34.9 413.8,34.1 412.6,35.3 Z" id="Shape"></path>
            <path d="M208,183.1 C222.8,183.1 236.7,177.3 247.1,166.7 L404,7 C398.5,2.6 391.7,0 384.2,0 L31.9,0 C24.4,0 17.5,2.6 12.1,7 L169,166.7 C179.3,177.2 193.2,183.1 208,183.1 Z" id="Shape"></path>
        </g>
    </g>
</svg>