<svg id="Layer_1" data-name="Layer 1" xmlns="http://www.w3.org/2000/svg" viewBox="0 0 442.69 258"><defs><style>.cls-1{fill:#1a1a1a;}.cls-2{fill:#f15a22;}</style></defs><title>ar-logo</title><path class="cls-1" d="M608.34,535.16l44.27,77.48A9.59,9.59,0,0,1,644.28,627H617.4a9.6,9.6,0,0,1-8.31-4.79L546,513.23a9.6,9.6,0,0,1,8.39-14.41l21.27.18a43.16,43.16,0,0,0,42.56-42.88c0-11.52-4.16-21.44-12.8-29.76a40.63,40.63,0,0,0-29.76-12.48l-82.88-.44a9.58,9.58,0,0,1-8.18-4.66l-.1-.17-13.11-23.3A9.6,9.6,0,0,1,479.79,371H575.7c23.36,0,43.52,8.32,60.16,25,16.64,17,25,36.8,25,60.16,0,17.92-4.8,33.92-15,48.32Q630.9,526,608.34,535.16Z" transform="translate(-280.31 -371)"/><path class="cls-1" d="M417.93,377,281.66,613a10,10,0,0,0,8.66,15H562.85a10,10,0,0,0,8.66-15L435.25,377A10,10,0,0,0,417.93,377Z" transform="translate(-280.31 -371)"/><circle class="cls-2" cx="417.69" cy="233" r="25"/></svg>