<?xml version="1.0" encoding="UTF-8"?>
<svg width="315px" height="351px" viewBox="0 0 315 351" version="1.1" xmlns="http://www.w3.org/2000/svg" xmlns:xlink="http://www.w3.org/1999/xlink">
    <!-- Generator: Sketch 52.5 (67469) - http://www.bohemiancoding.com/sketch -->
    <title>email-marketing-p</title>
    <desc>Created with Sketch.</desc>
    <g id="Page-1" stroke="none" stroke-width="1" fill="none" fill-rule="evenodd">
        <g id="email-marketing-p" transform="translate(0.000000, -1.000000)">
            <path d="M54.3,158.34 L261.3,158.34 C264.312859,158.34 267.20232,159.536854 269.332733,161.667267 C271.463146,163.79768 272.66,166.687141 272.66,169.7 L272.66,302.86 L42.95,302.86 L42.95,169.7 C42.9499976,163.429948 48.0299508,158.345519 54.3,158.34 Z" id="Path" fill="#535461"></path>
            <rect id="Rectangle" fill="#FFFFFF" x="53.85" y="168.92" width="207.89" height="121.46"></rect>
            <polygon id="Path" fill="#E0E0E0" points="314.79 338.5 0.8 338.5 42.94 302.86 272.64 302.86"></polygon>
            <path d="M0.8,338.5 L314.8,338.5 L314.8,340.84 C314.772448,347.019389 309.74944,352.011086 303.57,352 L12,352 C5.83226372,351.994559 0.827507586,347.007677 0.8,340.84 L0.8,338.5 Z" id="Path" fill="#989797"></path>
            <path d="M72.86,312.5 L60.14,312.5 C59.9600797,312.499187 59.7987817,312.388913 59.7327203,312.221558 C59.6666589,312.054202 59.7091457,311.863487 59.84,311.74 L63.84,307.99 C63.9199973,307.911596 64.0279991,307.868395 64.14,307.87 L76.29,307.87 C76.4607354,307.874189 76.6136237,307.976799 76.6821906,308.133218 C76.7507576,308.289636 76.7226154,308.471603 76.61,308.6 L73.21,312.35 C73.1221309,312.450508 72.9933813,312.505687 72.86,312.5 Z" id="Path" fill="#FFFFFF"></path>
            <path d="M93,312.5 L80.15,312.5 C79.9795605,312.500228 79.8243203,312.402003 79.7515415,312.247883 C79.6787627,312.093763 79.7015383,311.911475 79.81,311.78 L83,308 C83.0864315,307.903353 83.2103495,307.848684 83.34,307.85 L95.61,307.85 C95.7729097,307.846123 95.9240137,307.934668 96.0002587,308.078687 C96.0765037,308.222705 96.0647879,308.397449 95.97,308.53 L93.39,312.29 C93.3072819,312.425102 93.1583246,312.50531 93,312.5 Z" id="Path" fill="#FFFFFF"></path>
            <path d="M113.11,312.5 L100.11,312.5 C99.951636,312.498171 99.8064735,312.411374 99.7299117,312.272735 C99.6533498,312.134096 99.6572027,311.965008 99.74,311.83 L102.07,308.07 C102.15193,307.94033 102.296728,307.864121 102.45,307.87 L114.82,307.87 C114.96893,307.870506 115.107495,307.946316 115.188234,308.071462 C115.268974,308.196608 115.280927,308.354102 115.22,308.49 L113.45,312.25 C113.388165,312.387042 113.259245,312.481836 113.11,312.5 Z" id="Path" fill="#FFFFFF"></path>
            <path d="M133.21,312.5 L120.21,312.5 C120.06445,312.501708 119.927916,312.429664 119.847174,312.308551 C119.766432,312.187437 119.752443,312.033697 119.81,311.9 L121.32,308.14 C121.386815,307.973164 121.550339,307.865477 121.73,307.87 L134.17,307.87 C134.305943,307.865454 134.436022,307.925496 134.520752,308.031901 C134.605482,308.138306 134.634872,308.278527 134.6,308.41 L133.66,312.17 C133.604545,312.370954 133.41833,312.507511 133.21,312.5 Z" id="Path" fill="#FFFFFF"></path>
            <path d="M153.3,312.5 L140.24,312.5 C140.109767,312.499211 139.986575,312.440769 139.903581,312.340404 C139.820587,312.240039 139.786318,312.108064 139.81,311.98 L140.5,308.22 C140.542557,308.016343 140.721944,307.87033 140.93,307.87 L153.42,307.87 C153.53932,307.867093 153.654481,307.913912 153.737924,307.999252 C153.821368,308.084592 153.865587,308.200775 153.86,308.32 L153.73,312.07 C153.73,312.184043 153.684697,312.293415 153.604056,312.374056 C153.523415,312.454697 153.414043,312.5 153.3,312.5 Z" id="Path" fill="#FFFFFF"></path>
            <path d="M173.36,312.5 L160.3,312.5 C160.185957,312.5 160.076585,312.454697 159.995944,312.374056 C159.915303,312.293415 159.87,312.184043 159.87,312.07 L159.74,308.32 C159.734413,308.200775 159.778632,308.084592 159.862076,307.999252 C159.945519,307.913912 160.06068,307.867093 160.18,307.87 L172.67,307.87 C172.878056,307.87033 173.057443,308.016343 173.1,308.22 L173.79,311.98 C173.813682,312.108064 173.779413,312.240039 173.696419,312.340404 C173.613425,312.440769 173.490233,312.499211 173.36,312.5 Z" id="Path" fill="#FFFFFF"></path>
            <path d="M193.41,312.5 L180.41,312.5 C180.209064,312.498344 180.033578,312.363668 179.98,312.17 L179.04,308.41 C179.005661,308.280258 179.033868,308.141923 179.116265,308.035984 C179.198662,307.930045 179.325797,307.868654 179.46,307.87 L191.91,307.87 C192.089661,307.865477 192.253185,307.973164 192.32,308.14 L193.83,311.9 C193.88929,312.037035 193.873248,312.195017 193.787624,312.317337 C193.702,312.439657 193.559051,312.508804 193.41,312.5 Z" id="Path" fill="#FFFFFF"></path>
            <path d="M213.43,312.5 L200.49,312.5 C200.322386,312.4998 200.170164,312.402222 200.1,312.25 L198.33,308.49 C198.269073,308.354102 198.281026,308.196608 198.361766,308.071462 C198.442505,307.946316 198.58107,307.870506 198.73,307.87 L211.1,307.87 C211.253272,307.864121 211.39807,307.94033 211.48,308.07 L213.81,311.83 C213.893732,311.966533 213.89666,312.137781 213.817645,312.277097 C213.73863,312.416413 213.590154,312.50179 213.43,312.5 Z" id="Path" fill="#FFFFFF"></path>
            <path d="M233.45,312.5 L220.61,312.5 C220.466157,312.49932 220.331728,312.428371 220.25,312.31 L217.67,308.55 C217.575212,308.417449 217.563496,308.242705 217.639741,308.098687 C217.715986,307.954668 217.86709,307.866123 218.03,307.87 L230.3,307.87 C230.429651,307.868684 230.553569,307.923353 230.64,308.02 L233.79,311.78 C233.898462,311.911475 233.921237,312.093763 233.848458,312.247883 C233.77568,312.402003 233.620439,312.500228 233.45,312.5 Z" id="Path" fill="#FFFFFF"></path>
            <path d="M253.46,312.5 L240.74,312.5 C240.617058,312.496917 240.501017,312.442523 240.42,312.35 L237,308.6 C236.877747,308.474602 236.843758,308.28759 236.914069,308.127194 C236.984379,307.966799 237.14494,307.865069 237.32,307.87 L249.47,307.87 C249.582001,307.868395 249.690003,307.911596 249.77,307.99 L253.77,311.74 C253.902234,311.864731 253.944152,312.057939 253.875497,312.226255 C253.806841,312.394571 253.641749,312.50334 253.46,312.5 Z" id="Path" fill="#FFFFFF"></path>
            <path d="M66.5,319.51 L52.73,319.51 C52.5495041,319.515455 52.3848294,319.407557 52.3177643,319.239894 C52.2506992,319.072232 52.2955337,318.880529 52.43,318.76 L57.14,314.29 C57.224503,314.220148 57.3303721,314.181329 57.44,314.18 L70.55,314.18 C70.7207354,314.184189 70.8736237,314.286799 70.9421906,314.443218 C71.0107576,314.599636 70.9826154,314.781603 70.87,314.91 L66.87,319.37 C66.7757819,319.472606 66.6385414,319.524534 66.5,319.51 Z" id="Path" fill="#FFFFFF"></path>
            <path d="M88.16,319.51 L74.26,319.51 C74.0913722,319.511439 73.937468,319.414178 73.866391,319.261255 C73.7953141,319.108332 73.8201857,318.927977 73.93,318.8 L77.67,314.33 C77.7564315,314.233353 77.8803495,314.178684 78.01,314.18 L91.23,314.18 C91.3929097,314.176123 91.5440137,314.264668 91.6202587,314.408687 C91.6965037,314.552705 91.6847879,314.727449 91.59,314.86 L88.53,319.33 C88.4408775,319.443666 88.3044399,319.510042 88.16,319.51 Z" id="Path" fill="#FFFFFF"></path>
            <path d="M109.81,319.51 L95.81,319.51 C95.6520443,319.512467 95.5054549,319.428123 95.4282042,319.290325 C95.3509536,319.152526 95.3554825,318.983465 95.44,318.85 L98.21,314.38 C98.2900888,314.253449 98.4302533,314.177684 98.58,314.18 L111.91,314.18 C112.059327,314.178519 112.198729,314.254619 112.278243,314.381025 C112.357756,314.50743 112.365992,314.666038 112.3,314.8 L110.21,319.26 C110.13835,319.415555 109.981222,319.51376 109.81,319.51 Z" id="Path" fill="#FFFFFF"></path>
            <path d="M59.11,327.68 L44.11,327.68 C43.9295041,327.685455 43.7648294,327.577557 43.6977643,327.409894 C43.6306992,327.242232 43.6755337,327.050529 43.81,326.93 L49.46,321.58 C49.5399973,321.501596 49.6479991,321.458395 49.76,321.46 L64,321.46 C64.1725435,321.460356 64.3289551,321.561528 64.4000296,321.718754 C64.471104,321.875979 64.4437225,322.060236 64.33,322.19 L59.48,327.54 C59.3867298,327.643998 59.2487524,327.696205 59.11,327.68 Z" id="Path" fill="#FFFFFF"></path>
            <path d="M82.55,327.68 L67.41,327.68 C67.2413722,327.681439 67.087468,327.584178 67.016391,327.431255 C66.9453141,327.278332 66.9701857,327.097977 67.08,326.97 L71.56,321.62 C71.645389,321.520698 71.7690574,321.462501 71.9,321.46 L86.23,321.46 C86.3929097,321.456123 86.5440137,321.544668 86.6202587,321.688687 C86.6965037,321.832705 86.6847879,322.007449 86.59,322.14 L82.91,327.49 C82.8307599,327.611139 82.6947239,327.682936 82.55,327.68 Z" id="Path" fill="#FFFFFF"></path>
            <path d="M106,327.68 L90.74,327.68 C90.5820443,327.682467 90.4354549,327.598123 90.3582042,327.460325 C90.2809536,327.322526 90.2854825,327.153465 90.37,327.02 L93.69,321.67 C93.7690461,321.541063 93.9087721,321.461759 94.06,321.46 L108.49,321.46 C108.63893,321.460506 108.777495,321.536316 108.858234,321.661462 C108.938974,321.786608 108.950927,321.944102 108.89,322.08 L106.38,327.43 C106.309572,327.577421 106.163258,327.67368 106,327.68 Z" id="Path" fill="#FFFFFF"></path>
            <path d="M131.45,319.51 L117.37,319.51 C117.224625,319.51004 117.088614,319.438272 117.006594,319.318244 C116.924575,319.198216 116.907136,319.045423 116.96,318.91 L118.76,314.45 C118.826815,314.283164 118.990339,314.175477 119.17,314.18 L132.57,314.18 C132.704203,314.178654 132.831338,314.240045 132.913735,314.345984 C132.996132,314.451923 133.024339,314.590258 132.99,314.72 L131.87,319.18 C131.823576,319.374158 131.649629,319.51083 131.45,319.51 Z" id="Path" fill="#FFFFFF"></path>
            <path d="M199.52,327.68 L114.08,327.68 C113.934625,327.68004 113.798614,327.608272 113.716594,327.488244 C113.634575,327.368216 113.617136,327.215423 113.67,327.08 L115.83,321.73 C115.895499,321.56661 116.05397,321.459642 116.23,321.46 L197.37,321.46 C197.54603,321.459642 197.704501,321.56661 197.77,321.73 L199.93,327.08 C199.982864,327.215423 199.965425,327.368216 199.883406,327.488244 C199.801386,327.608272 199.665375,327.68004 199.52,327.68 Z" id="Path" fill="#FFFFFF"></path>
            <path d="M153.06,319.51 L138.94,319.51 C138.810639,319.512263 138.687134,319.456157 138.603736,319.357243 C138.520337,319.258328 138.485909,319.127119 138.51,319 L139.34,314.53 C139.382557,314.326343 139.561944,314.18033 139.77,314.18 L153.21,314.18 C153.32932,314.177093 153.444481,314.223912 153.527924,314.309252 C153.611368,314.394592 153.655587,314.510775 153.65,314.63 L153.5,319.09 C153.497378,319.204053 153.449541,319.31239 153.367018,319.391162 C153.284495,319.469934 153.174052,319.512683 153.06,319.51 Z" id="Path" fill="#FFFFFF"></path>
            <path d="M174.66,319.51 L160.54,319.51 C160.425948,319.512683 160.315505,319.469934 160.232982,319.391162 C160.150459,319.31239 160.102622,319.204053 160.1,319.09 L159.95,314.63 C159.944413,314.510775 159.988632,314.394592 160.072076,314.309252 C160.155519,314.223912 160.27068,314.177093 160.39,314.18 L173.83,314.18 C174.038056,314.18033 174.217443,314.326343 174.26,314.53 L175.09,319 C175.114091,319.127119 175.079663,319.258328 174.996264,319.357243 C174.912866,319.456157 174.789361,319.512263 174.66,319.51 Z" id="Path" fill="#FFFFFF"></path>
            <path d="M196.23,319.51 L182.15,319.51 C181.950371,319.51083 181.776424,319.374158 181.73,319.18 L180.61,314.72 C180.575661,314.590258 180.603868,314.451923 180.686265,314.345984 C180.768662,314.240045 180.895797,314.178654 181.03,314.18 L194.43,314.18 C194.609661,314.175477 194.773185,314.283164 194.84,314.45 L196.64,318.91 C196.692864,319.045423 196.675425,319.198216 196.593406,319.318244 C196.511386,319.438272 196.375375,319.51004 196.23,319.51 Z" id="Path" fill="#FFFFFF"></path>
            <path d="M217.79,319.51 L203.79,319.51 C203.618778,319.51376 203.46165,319.415555 203.39,319.26 L201.29,314.8 C201.229073,314.664102 201.241026,314.506608 201.321766,314.381462 C201.402505,314.256316 201.54107,314.180506 201.69,314.18 L215,314.18 C215.149747,314.177684 215.289911,314.253449 215.37,314.38 L218.14,318.85 C218.222681,318.980446 218.229056,319.145214 218.156699,319.281658 C218.084342,319.418103 217.94437,319.505263 217.79,319.51 Z" id="Path" fill="#FFFFFF"></path>
            <path d="M239.34,319.51 L225.43,319.51 C225.28908,319.507017 225.156938,319.440946 225.07,319.33 L222,314.86 C221.905212,314.727449 221.893496,314.552705 221.969741,314.408687 C222.045986,314.264668 222.19709,314.176123 222.36,314.18 L235.58,314.18 C235.709651,314.178684 235.833569,314.233353 235.92,314.33 L239.66,318.8 C239.768656,318.926603 239.794272,319.104631 239.725719,319.256733 C239.657166,319.408834 239.506819,319.507554 239.34,319.51 Z" id="Path" fill="#FFFFFF"></path>
            <path d="M243.26,324.2 L228.65,324.2 C228.506157,324.19932 228.371728,324.128371 228.29,324.01 L227,322.14 C226.905212,322.007449 226.893496,321.832705 226.969741,321.688687 C227.045986,321.544668 227.19709,321.456123 227.36,321.46 L241.7,321.46 C241.830943,321.462501 241.954611,321.520698 242.04,321.62 L243.6,323.48 C243.708462,323.611475 243.731237,323.793763 243.658458,323.947883 C243.58568,324.102003 243.430439,324.200228 243.26,324.2 Z" id="Path" fill="#FFFFFF"></path>
            <path d="M246.19,327.68 L231.05,327.68 C230.905276,327.682936 230.76924,327.611139 230.69,327.49 L229.26,325.41 C229.165212,325.277449 229.153496,325.102705 229.229741,324.958687 C229.305986,324.814668 229.45709,324.726123 229.62,324.73 L244.44,324.73 C244.569651,324.728684 244.693569,324.783353 244.78,324.88 L246.52,326.97 C246.629814,327.097977 246.654686,327.278332 246.583609,327.431255 C246.512532,327.584178 246.358628,327.681439 246.19,327.68 Z" id="Path" fill="#FFFFFF"></path>
            <path d="M269.5,327.68 L254.5,327.68 C254.37833,327.680708 254.262056,327.629838 254.18,327.54 L252.29,325.46 C252.177385,325.331603 252.149242,325.149636 252.217809,324.993218 C252.286376,324.836799 252.439265,324.734189 252.61,324.73 L267.31,324.73 C267.422001,324.728395 267.530003,324.771596 267.61,324.85 L269.81,326.93 C269.946182,327.051686 269.990642,327.246119 269.920881,327.414897 C269.851119,327.583676 269.682355,327.689976 269.5,327.68 Z" id="Path" fill="#FFFFFF"></path>
            <path d="M222.86,327.68 L207.62,327.68 C207.448778,327.68376 207.29165,327.585555 207.22,327.43 L206.22,325.35 C206.154008,325.216038 206.162244,325.05743 206.241757,324.931025 C206.321271,324.804619 206.460673,324.728519 206.61,324.73 L221.54,324.73 C221.688817,324.731382 221.827327,324.806252 221.91,324.93 L223.2,327.02 C223.281941,327.148956 223.289299,327.311709 223.219329,327.447533 C223.149359,327.583357 223.01257,327.671853 222.86,327.68 Z" id="Path" fill="#FFFFFF"></path>
            <path d="M260.87,319.51 L247.1,319.51 C246.975115,319.512289 246.855142,319.461391 246.77,319.37 L242.77,314.91 C242.657385,314.781603 242.629242,314.599636 242.697809,314.443218 C242.766376,314.286799 242.919265,314.184189 243.09,314.18 L256.19,314.18 C256.302921,314.179851 256.412428,314.218709 256.5,314.29 L261.21,318.76 C261.352867,318.884835 261.397037,319.088549 261.318703,319.261345 C261.240369,319.434142 261.058045,319.535179 260.87,319.51 Z" id="Path" fill="#FFFFFF"></path>
            <polygon id="Path" fill="#D0D0D0" points="53.85 179.45 157.79 249.61 261.74 179.45 263.31 169.3 157.72 240.99 53.85 168.92"></polygon>
            <polygon id="Path" fill="#535461" points="157.72 243.75 50.85 171.19 53.42 167.41 157.72 238.22 262.02 167.41 264.59 171.19"></polygon>
            <rect id="Rectangle" fill="#535461" transform="translate(95.041659, 255.507592) rotate(-34.170000) translate(-95.041659, -255.507592) " x="43.1666592" y="253.222592" width="103.75" height="4.57"></rect>
            <rect id="Rectangle" fill="#535461" transform="translate(221.065236, 255.936864) rotate(-55.830000) translate(-221.065236, -255.936864) " x="218.780236" y="204.896864" width="4.57" height="102.08"></rect>
            <polygon id="Path" fill="#0058BE" points="281.96 5.46 243.98 28.25 252.79 41.82"></polygon>
            <polygon id="Path" fill="#4A90E2" points="281.96 5.46 252 29.51 252.79 41.82"></polygon>
            <polygon id="Path" fill="#44E8FF" points="281.96 5.46 230.84 23.64 243.98 28.25"></polygon>
            <polygon id="Path" fill="#44E8FF" points="281.96 5.46 252 29.51 268.11 33.87"></polygon>
            <path d="M116,97.13 C115.923084,96.9632473 115.916882,96.7724749 115.982804,96.6010783 C116.048725,96.4296817 116.181166,96.2922337 116.35,96.22 C117.47,95.74 118.59,95.22 119.67,94.61 C119.887264,94.4770792 120.160084,94.4746563 120.379675,94.6036974 C120.599266,94.7327386 120.729912,94.9722555 120.719518,95.2267427 C120.709124,95.4812298 120.559382,95.7092954 120.33,95.82 C119.21,96.43 118.06,96.99 116.9,97.49 C116.837975,97.5215832 116.769591,97.5386792 116.7,97.54 C116.402484,97.5694156 116.119869,97.4038844 116,97.13 Z M123.84,92.9 C123.725207,92.746453 123.678414,92.5525443 123.710544,92.3635426 C123.742675,92.1745408 123.850916,92.006988 124.01,91.9 C125.396912,90.9270113 126.732064,89.8822551 128.01,88.77 C128.150934,88.6428454 128.338027,88.5793657 128.52724,88.5945028 C128.716453,88.6096399 128.891074,88.7020565 129.01,88.85 C129.141144,88.9882922 129.208233,89.1752729 129.194924,89.3653947 C129.181616,89.5555165 129.089131,89.731327 128.94,89.85 C127.612439,90.9933478 126.227298,92.0680836 124.79,93.07 C124.692854,93.1390647 124.578818,93.1805324 124.46,93.19 C124.213506,93.2114693 123.973989,93.1012155 123.83,92.9 L123.84,92.9 Z M131.78,86.27 C131.645623,86.1383377 131.569898,85.9581281 131.569898,85.77 C131.569898,85.5818719 131.645623,85.4016623 131.78,85.27 C132.94,84.07 134.08,82.78 135.18,81.43 C135.337197,81.2388628 135.584423,81.1461084 135.828551,81.1866763 C136.072679,81.2272442 136.27662,81.3949713 136.363551,81.6266763 C136.450482,81.8583814 136.407197,82.1188629 136.25,82.31 C135.13,83.68 133.96,85 132.78,86.23 C132.664333,86.346326 132.512857,86.4203027 132.35,86.44 C132.140903,86.4740176 131.927649,86.4115121 131.77,86.27 L131.78,86.27 Z M138.41,78.27 C138.250916,78.163012 138.142675,77.9954592 138.110544,77.8064574 C138.078414,77.6174557 138.125207,77.423547 138.24,77.27 C139.24,75.9 140.13,74.45 141.02,72.96 C141.216061,72.6313906 141.641391,72.5239389 141.97,72.72 C142.298609,72.9160611 142.406061,73.3413906 142.21,73.67 C141.3,75.19 140.35,76.67 139.37,78.06 C139.260007,78.2285107 139.080097,78.3386591 138.88,78.36 C138.719737,78.396957 138.551935,78.3829735 138.4,78.32 L138.41,78.27 Z M194,64.44 C193.974579,64.2578348 194.024037,64.0731415 194.13709,63.9280572 C194.250143,63.7829728 194.417146,63.6898737 194.6,63.67 C196.32,63.47 198.04,63.23 199.71,62.96 C200.085394,62.8999216 200.43866,63.1548099 200.5,63.53 C200.554449,63.9040363 200.302127,64.2537463 199.93,64.32 C198.24,64.59 196.5,64.84 194.76,65.04 C194.579419,65.0625129 194.39735,65.0117058 194.254518,64.8989439 C194.111686,64.7861819 194.020011,64.6208749 194,64.44 Z M189.58,65.54 C187.87,65.67 186.12,65.77 184.38,65.84 C184.025317,65.8122321 183.747877,65.522837 183.735088,65.167299 C183.722299,64.811761 183.978229,64.5031799 184.33,64.45 C186.05,64.39 187.78,64.29 189.47,64.16 C189.849554,64.1369314 190.178107,64.4210858 190.21,64.8 C190.226635,64.9804998 190.170515,65.1601706 190.054103,65.2991137 C189.937692,65.4380568 189.770624,65.524771 189.59,65.54 L189.58,65.54 Z M143.79,69.48 C143.626703,69.3966519 143.50329,69.2517414 143.447004,69.0772566 C143.390719,68.9027719 143.406189,68.7130605 143.49,68.55 C144.27,67.05 145.01,65.49 145.72,63.92 C145.792234,63.7511665 145.929682,63.6187254 146.101078,63.5528037 C146.272475,63.4868819 146.463247,63.4930843 146.63,63.57 C146.977688,63.7248781 147.134294,64.1320518 146.98,64.48 C146.27,66.08 145.51,67.66 144.72,69.18 C144.614793,69.3917383 144.405776,69.5323502 144.17,69.55 C144.045713,69.5628837 143.920403,69.5385177 143.81,69.48 L143.79,69.48 Z M204.24,62.83 C204.201433,62.6509694 204.235622,62.4639508 204.335034,62.3101437 C204.434446,62.1563367 204.590925,62.0483598 204.77,62.01 C206.47,61.65 208.15,61.24 209.77,60.81 C210.012706,60.7295613 210.279995,60.7899305 210.46457,60.9668736 C210.649144,61.1438166 210.720739,61.4083202 210.650614,61.6542045 C210.580489,61.9000888 210.380143,62.0870361 210.13,62.14 C208.49,62.58 206.78,62.99 205.06,63.36 L205,63.36 C204.654029,63.3988105 204.334626,63.1700485 204.26,62.83 L204.24,62.83 Z M179.17,65.93 L177.17,65.93 C176.11,65.93 175.04,65.93 173.99,65.81 C173.608924,65.7879086 173.317909,65.4610765 173.34,65.08 C173.362091,64.6989235 173.688924,64.4079086 174.07,64.43 C175.07,64.49 176.15,64.53 177.19,64.55 L179.19,64.55 C179.571076,64.5306701 179.89567,64.8239235 179.915,65.205 C179.93433,65.5860765 179.641076,65.91067 179.26,65.93 L179.17,65.93 Z M168.75,65.3 C167.02,65.07 165.28,64.77 163.59,64.42 C163.219559,64.335226 162.981548,63.973801 163.05,63.6 C163.086081,63.4190814 163.193108,63.2601454 163.347181,63.1586823 C163.501255,63.0572193 163.689542,63.0216799 163.87,63.06 C165.53,63.41 167.23,63.7 168.93,63.93 C169.276479,63.9719394 169.537084,64.2659922 169.537084,64.615 C169.537084,64.9640078 169.276479,65.2580606 168.93,65.3 L168.75,65.3 Z M214.26,60.21 C214.200049,60.0350001 214.212876,59.8432566 214.295604,59.6778019 C214.378331,59.5123472 214.524029,59.387039 214.7,59.33 C216.34,58.78 217.96,58.18 219.51,57.55 C219.863408,57.4117782 220.262594,57.5803232 220.41,57.93 C220.482021,58.0994517 220.482248,58.2908658 220.41063,58.460488 C220.339011,58.6301102 220.20167,58.7634399 220.03,58.83 C218.46,59.47 216.81,60.08 215.13,60.64 C215.080447,60.6494589 215.029553,60.6494589 214.98,60.64 C214.675855,60.673312 214.38778,60.4963515 214.28,60.21 L214.26,60.21 Z M223.87,56.37 C223.702787,56.0273092 223.840615,55.6138251 224.18,55.44 C225.73,54.67 227.24,53.84 228.67,52.98 C228.826398,52.8842099 229.014496,52.8546252 229.192748,52.8977808 C229.370999,52.9409365 229.524736,53.0532813 229.62,53.21 C229.811911,53.5392057 229.705241,53.9614433 229.38,54.16 C227.92,55.05 226.38,55.89 224.8,56.68 C224.72462,56.7169603 224.64343,56.7406408 224.56,56.75 C224.27954,56.7742261 224.013149,56.6231382 223.89,56.37 L223.87,56.37 Z M158.51,63.15 C156.84,62.66 155.17,62.15 153.51,61.48 C153.337207,61.4172681 153.197173,61.2872497 153.121815,61.1195775 C153.046457,60.9519054 153.042195,60.7608662 153.11,60.59 C153.24955,60.2378008 153.643971,60.0605332 154,60.19 C155.58,60.79 157.22,61.34 158.86,61.82 C159.03683,61.8710164 159.18595,61.9905617 159.274211,62.1520593 C159.362471,62.3135569 159.382556,62.5036219 159.33,62.68 C159.248268,62.9461241 159.016607,63.1385207 158.74,63.17 C158.669431,63.1724027 158.598847,63.1656804 158.53,63.15 L158.51,63.15 Z M148.08,60.05 C147.907207,59.9872681 147.767173,59.8572497 147.691815,59.6895775 C147.616457,59.5219054 147.612195,59.3308662 147.68,59.16 C147.68,59.1 147.73,59.03 147.75,58.96 C146.52,58.35 145.29,57.69 144.1,56.96 C143.7688,56.7720901 143.652438,56.3513973 143.84,56.02 C144.035214,55.6911567 144.458207,55.5798426 144.79,55.77 C145.91,56.42 147.07,57.04 148.23,57.62 C148.64,56.49 149.01,55.37 149.35,54.27 C149.465092,53.9042875 149.852962,53.699207 150.22,53.81 C150.395456,53.8650973 150.541658,53.9879569 150.626147,54.1513032 C150.710637,54.3146496 150.726422,54.5049657 150.67,54.68 C150.31,55.85 149.91,57.04 149.48,58.24 C149.71667,58.4470728 149.786202,58.7865558 149.65,59.07 C149.54105,59.3132726 149.29646,59.4671277 149.03,59.46 L148.97,59.61 C148.875228,59.8560643 148.651896,60.0293396 148.39,60.06 C148.293763,60.0778908 148.194776,60.0744775 148.1,60.05 L148.08,60.05 Z M232.77,51.1 C232.64934,50.9513152 232.595892,50.7591761 232.622441,50.5695417 C232.64899,50.3799073 232.753147,50.209833 232.91,50.1 C234.277406,49.0839377 235.592426,47.9992125 236.85,46.85 C236.978744,46.7103251 237.160042,46.6308687 237.35,46.6308687 C237.539958,46.6308687 237.721256,46.7103251 237.85,46.85 C237.986964,46.9802531 238.0645,47.1609892 238.0645,47.35 C238.0645,47.5390108 237.986964,47.7197469 237.85,47.85 C236.574236,49.0305215 235.239174,50.1452989 233.85,51.19 C233.747748,51.2651406 233.626511,51.3101715 233.5,51.32 C233.24073,51.3887554 232.964969,51.3033083 232.79,51.1 L232.77,51.1 Z M240.47,44.2 C240.320869,44.081327 240.228384,43.9055165 240.215076,43.7153947 C240.201767,43.5252729 240.268856,43.3382922 240.4,43.2 C241.515349,41.9271895 242.557047,40.5916789 243.52,39.2 C243.621302,39.0344002 243.788552,38.9199921 243.979608,38.8856018 C244.170665,38.8512116 244.367311,38.9001185 244.52,39.02 C244.680666,39.1253915 244.790945,39.2921936 244.824985,39.4813027 C244.859025,39.6704118 244.813831,39.8651989 244.7,40.02 C243.713233,41.4689445 242.641349,42.858053 241.49,44.18 C241.371821,44.3143872 241.207831,44.3999473 241.03,44.42 C240.826096,44.4314774 240.627831,44.3507026 240.49,44.2 L240.47,44.2 Z M139.67,54.2 C138.24,53.2 136.84,52.15 135.49,51.05 C135.343091,50.9308838 135.250634,50.7573895 135.233681,50.5690187 C135.216728,50.380648 135.27672,50.1934332 135.4,50.05 C135.515672,49.8980121 135.689931,49.8016782 135.88016,49.7845575 C136.070389,49.7674369 136.259049,49.8311082 136.4,49.96 C137.71,51.03 139.09,52.07 140.49,53.04 C140.725143,53.2062609 140.832297,53.5010756 140.758788,53.7795199 C140.685278,54.0579642 140.446567,54.2614706 140.16,54.29 C139.998799,54.3191501 139.832479,54.2908404 139.69,54.21 L139.67,54.2 Z M151.21,50.2 C150.840375,50.1110746 150.612317,49.7399215 150.7,49.37 C151.09,47.67 151.41,45.98 151.65,44.37 C151.705229,43.991685 152.056685,43.7297717 152.435,43.7850001 C152.813315,43.8402286 153.075228,44.191685 153.02,44.57 C152.77,46.26 152.44,47.99 152.02,49.72 C151.953405,50.0064917 151.71252,50.2192733 151.42,50.25 C151.354661,50.2370147 151.290946,50.2168942 151.23,50.19 L151.21,50.2 Z M131.6,47.58 C130.36,46.37 129.14,45.1 127.99,43.79 C127.82235,43.5082695 127.876085,43.1474702 128.118557,42.9268209 C128.361029,42.7061716 128.725282,42.686601 128.99,42.88 C130.11,44.16 131.3,45.4 132.52,46.58 C132.656964,46.7102531 132.7345,46.8909892 132.7345,47.08 C132.7345,47.2690108 132.656964,47.4497469 132.52,47.58 C132.389747,47.7169644 132.209011,47.7945003 132.02,47.7945003 C131.830989,47.7945003 131.650253,47.7169644 131.52,47.58 L131.6,47.58 Z M152.83,40 C152.646889,39.9896935 152.475414,39.9069116 152.353453,39.7699394 C152.231491,39.6329672 152.169078,39.4530757 152.18,39.27 C152.265053,37.5710638 152.265053,35.8689362 152.18,34.17 C152.163357,33.9855896 152.223771,33.8025135 152.346902,33.6642279 C152.470033,33.5259422 152.644902,33.4447777 152.83,33.44 C153.013076,33.4290782 153.192967,33.4914911 153.329939,33.6134527 C153.466912,33.7354142 153.549694,33.9068886 153.56,34.09 C153.650133,35.8388394 153.650133,37.5911606 153.56,39.34 C153.538651,39.6803458 153.278349,39.9574417 152.94,40 L152.83,40 Z M124.69,39.77 C123.69,38.39 122.69,36.94 121.69,35.46 C121.572682,35.3034404 121.528478,35.1039363 121.568685,34.9124738 C121.608892,34.7210112 121.729614,34.5561418 121.9,34.46 C122.057602,34.3458754 122.256066,34.3036008 122.446496,34.3435912 C122.636926,34.3835815 122.801619,34.5021189 122.9,34.67 C123.81,36.12 124.79,37.54 125.8,38.89 C125.918863,39.0385143 125.972167,39.2290074 125.947644,39.4176437 C125.923121,39.60628 125.822885,39.7768129 125.67,39.89 C125.567748,39.9651406 125.446511,40.0101715 125.32,40.02 C125.072413,40.0479982 124.829739,39.9362913 124.69,39.73 L124.69,39.77 Z M151.58,29.11 L151.58,28.91 C151.287261,27.3070898 150.882944,25.7265788 150.37,24.18 C150.280844,23.9427249 150.328959,23.6756691 150.495321,23.4844309 C150.661683,23.2931927 150.919504,23.2085643 151.166839,23.2640091 C151.414173,23.3194539 151.611195,23.5060446 151.68,23.75 C152.20971,25.3565363 152.630662,26.996912 152.94,28.66 L152.94,28.87 C152.974798,29.0506996 152.934875,29.2377876 152.829346,29.3885425 C152.723818,29.5392973 152.561696,29.640846 152.38,29.67 C151.993828,29.7235658 151.636705,29.4557231 151.58,29.07 L151.58,29.11 Z M119.09,30.9 C118.28,29.37 117.51,27.79 116.8,26.2 C116.651996,25.8464334 116.811341,25.4392203 117.16,25.28 C117.32835,25.2065142 117.519054,25.2031896 117.689863,25.2707626 C117.860673,25.3383356 117.997488,25.4712279 118.07,25.64 C118.76,27.2 119.51,28.75 120.31,30.25 C120.39774,30.4128092 120.416447,30.6040264 120.361925,30.7807535 C120.307403,30.9574806 120.184216,31.1049219 120.02,31.19 C119.941162,31.2271352 119.856659,31.2507962 119.77,31.26 C119.490155,31.2950832 119.218303,31.1511615 119.09,30.9 Z M148.43,19.43 C147.69276,17.8991689 146.854232,16.4192174 145.92,15 C145.804129,14.8449404 145.75872,14.6483401 145.794852,14.4581718 C145.830984,14.2680035 145.945334,14.1017576 146.11,14 C146.266054,13.8871065 146.461731,13.8435023 146.650954,13.8794547 C146.840177,13.9154071 147.006225,14.0277389 147.11,14.19 C148.081373,15.658276 148.950109,17.19193 149.71,18.78 C149.792021,18.944045 149.804298,19.1342664 149.744045,19.3074938 C149.683792,19.4807212 149.556118,19.6222642 149.39,19.7 C149.319914,19.7398048 149.240599,19.7604956 149.16,19.76 C148.87082,19.820228 148.575831,19.686877 148.43,19.43 Z M114.87,21.34 L114.58,20.52 C114.094743,19.109166 113.759558,17.6511098 113.58,16.17 C113.557387,15.9883145 113.60791,15.8050906 113.720445,15.6606713 C113.832979,15.516252 113.998298,15.4224792 114.18,15.4 C114.369781,15.3591499 114.567972,15.4013594 114.724639,15.5159935 C114.881305,15.6306276 114.981508,15.8067555 115,16 C115.163636,17.3631823 115.475481,18.7044481 115.93,20 L116.21,20.81 C116.337354,21.1716255 116.150106,21.5684117 115.79,21.7 L115.63,21.7 C115.324781,21.7624994 115.014992,21.6157571 114.87,21.34 Z M142.82,11 C141.697042,9.73853252 140.469327,8.57437727 139.15,7.52 C138.846243,7.28527897 138.790279,6.84875663 139.025,6.54500003 C139.259721,6.24124343 139.696243,6.18527901 140,6.42 C141.378468,7.52504292 142.662874,8.74255261 143.84,10.06 C143.976964,10.1902531 144.0545,10.3709892 144.0545,10.56 C144.0545,10.7490108 143.976964,10.9297469 143.84,11.06 C143.728272,11.1595864 143.588633,11.2224238 143.44,11.24 C143.205876,11.271402 142.97196,11.1808538 142.82,11 Z M114.29,11.63 C114.109351,11.5960931 113.949697,11.4915119 113.846446,11.3394505 C113.743194,11.1873891 113.70488,11.0004165 113.74,10.82 C114.041582,9.0295277 114.723578,7.32453633 115.74,5.82 C115.848565,5.66248606 116.016866,5.55626732 116.205767,5.52604318 C116.394668,5.49581904 116.587708,5.54422317 116.74,5.66 C116.899938,5.76666223 117.008127,5.93521254 117.038499,6.12504013 C117.068872,6.31486771 117.018674,6.50875991 116.9,6.66 C115.976198,8.00872265 115.352185,9.5397718 115.07,11.15 C115.013722,11.4514914 114.765194,11.6796484 114.46,11.71 L114.29,11.63 Z M134.93,4.77 C133.442175,4.00442146 131.872078,3.41060281 130.25,3 C130.010632,2.93926486 129.821849,2.75544198 129.754763,2.51777568 C129.687677,2.28010938 129.752481,2.02470682 129.924763,1.84777567 C130.097045,1.67084452 130.350632,1.59926484 130.59,1.66 C132.321718,2.10225305 133.99874,2.73616737 135.59,3.55 C135.753297,3.63334811 135.87671,3.77825863 135.932996,3.95274335 C135.989281,4.12722808 135.973811,4.31693954 135.89,4.48 C135.783433,4.68775324 135.581533,4.82983112 135.35,4.86 C135.201671,4.87096773 135.05391,4.83226827 134.93,4.75 L134.93,4.77 Z M119.66,3.18 C119.581452,3.0142845 119.572105,2.82411706 119.634023,2.65149737 C119.695941,2.47887769 119.82403,2.3380079 119.99,2.26 C121.645138,1.48283833 123.442283,1.05397421 125.27,1 C125.452066,0.991886107 125.629769,1.05719429 125.76325,1.18127607 C125.896732,1.30535785 125.974821,1.47782733 125.98,1.66 C125.988132,1.84304484 125.923126,2.02180788 125.799316,2.15687322 C125.675506,2.29193857 125.50306,2.37221422 125.32,2.38 C123.681176,2.43391975 122.069638,2.81470499 120.58,3.5 C120.508635,3.53811666 120.4305,3.561897 120.35,3.57 C120.061464,3.59527069 119.787165,3.44023168 119.66,3.18 Z" id="Shape" fill="#8550FC" fill-rule="nonzero"></path>
            <rect id="Rectangle" fill="#00A2FF" transform="translate(90.280840, 115.616317) rotate(-45.000000) translate(-90.280840, -115.616317) " x="68.48584" y="97.5363174" width="43.59" height="36.16" rx="9.12"></rect>
            <path d="M94,91.27 L94,108 C94,108.29 94,108.58 94,108.86 C93.5765025,114.429971 89.1499713,118.856502 83.58,119.28 C83.3,119.28 83.01,119.28 82.72,119.28 L65.94,119.28 C65.8680292,118.615276 65.8680292,117.944724 65.94,117.28 L82.7,117.28 C82.9863108,117.3002 83.2736892,117.3002 83.56,117.28 C87.9949936,116.871686 91.5110768,113.364004 91.93,108.93 C91.93,108.64 91.93,108.36 91.93,108.07 L91.93,91.25 C92.6188155,91.1846032 93.3125767,91.1913062 94,91.27 Z" id="Path" fill="#FFFFFF"></path>
            <path d="M82.7,117.3 C82.9863108,117.3202 83.2736892,117.3202 83.56,117.3 L83.56,139.11 C82.8341391,138.730143 82.1616524,138.25604 81.56,137.7 L81.56,117.3 L82.7,117.3 Z" id="Path" fill="#FFFFFF"></path>
            <path d="M112.31,106.86 C112.86604,107.461652 113.340143,108.134139 113.72,108.86 L91.93,108.86 C91.93,108.57 91.93,108.29 91.93,108 L91.93,106.82 L112.26,106.82 L112.31,106.86 Z" id="Path" fill="#FFFFFF"></path>
        </g>
    </g>
</svg>