<?xml version="1.0" encoding="UTF-8"?>
<svg width="549px" height="557px" viewBox="0 0 549 557" version="1.1" xmlns="http://www.w3.org/2000/svg" xmlns:xlink="http://www.w3.org/1999/xlink">
    <!-- Generator: Sketch 52.5 (67469) - http://www.bohemiancoding.com/sketch -->
    <title>Asset 1</title>
    <desc>Created with Sketch.</desc>
    <defs>
        <filter x="-2.2%" y="-2.2%" width="104.4%" height="104.4%" filterUnits="objectBoundingBox" id="filter-1">
            <feOffset dx="0" dy="2" in="SourceAlpha" result="shadowOffsetOuter1"></feOffset>
            <feGaussianBlur stdDeviation="2" in="shadowOffsetOuter1" result="shadowBlurOuter1"></feGaussianBlur>
            <feColorMatrix values="0 0 0 0 0.57116284   0 0 0 0 0.57116284   0 0 0 0 0.57116284  0 0 0 0.5 0" type="matrix" in="shadowBlurOuter1" result="shadowMatrixOuter1"></feColorMatrix>
            <feMerge>
                <feMergeNode in="shadowMatrixOuter1"></feMergeNode>
                <feMergeNode in="SourceGraphic"></feMergeNode>
            </feMerge>
        </filter>
    </defs>
    <g id="Page-1" stroke="none" stroke-width="1" fill="none" fill-rule="evenodd">
        <g id="Asset-1" filter="url(#filter-1)" transform="translate(4.000000, 1.000000)">
            <path d="M204.506719,11.9174945 C205.671153,11.3334365 206.845892,10.770617 208.051546,10.2502744 C244.540598,-5.8272498 283.605832,19.2766255 321.084137,18.9368099 C355.677119,18.628852 388.621343,0.374384361 423.204019,1.00091932 C433.50875,1.19206558 444.132927,3.24157824 452.572502,9.54940477 C461.733407,16.3988124 467.267048,27.4215799 475.016205,36.0974962 C493.008265,56.1041379 523.561792,64.2278539 532.722697,90.2025066 C539.936009,110.676395 530.249562,132.944934 522.624061,153.227676 C509.567967,187.973818 502.169171,227.116324 512.813958,262.786339 C520.429154,288.325603 536.885809,310.77467 540.379112,337.312142 C543.470532,360.621366 536.040821,384.514648 525.375424,404.861106 C511.196115,431.918921 511.309467,462.852757 504.364078,492.087515 C499.819692,511.202141 490.586653,530.507913 473.903294,540.065226 C458.909911,548.656188 441.309431,547.753553 424.739424,548.698665 C407.623266,549.675635 391.22844,550.557032 374.050453,548.4969 C345.052941,545.035029 316.550056,537.803328 287.377363,535.6901 C234.194648,531.824698 181.31077,545.15184 128.066226,547.987176 C98.6977433,549.548204 67.5362376,547.371261 42.9697595,530.12562 C22.0099371,515.407359 8.0882459,490.749491 2.78130956,464.583692 C-2.52562677,438.417893 0.225736339,410.829117 7.81001817,385.300472 C17.0842758,354.217966 33.4378835,323.7089 29.9445798,291.341467 C27.7599769,271.037486 17.8880448,252.698065 12.2513571,233.158669 C4.52280906,206.334478 5.13078817,176.303277 16.6411724,151.061351 C23.4443714,136.034204 34.17393,123.256292 47.6274978,114.159504 C63.0124608,103.92256 80.3141037,106.131361 97.0902053,99.5792925 C140.617388,82.6097524 163.596938,32.6356251 204.506719,11.9174945 Z" id="Path" fill="#7EDEFF"></path>
            <path d="M138.64,259.14 L394.7,259.14 C402.459601,259.14 408.75,265.430399 408.75,273.19 L408.75,437.92 L124.59,437.92 L124.59,273.19 C124.59,265.430399 130.880399,259.14 138.64,259.14 Z" id="Path" fill="#4A4A4A"></path>
            <rect id="Rectangle" fill="#F5F5F5" x="138.08" y="272.23" width="257.18" height="150.25"></rect>
            <polygon id="Path" fill="#D6D6D6" points="460.89 482.01 72.46 482.01 124.59 437.92 408.75 437.92"></polygon>
            <path d="M72.46,482 L460.890004,482 L460.89,484.89 C460.89266,488.573753 459.429788,492.107247 456.824042,494.711117 C454.218297,497.314986 450.68375,498.775313 447,498.77 L86.33,498.77 C82.6514473,498.77 79.1235585,497.308701 76.5224289,494.707571 C73.9212994,492.106441 72.46,488.578553 72.46,484.9 L72.46,482 Z" id="Path" fill="#4A4A4A"></path>
            <path d="M161.59,449.84 L145.87,449.84 C145.648277,449.842687 145.447447,449.709558 145.363575,449.504292 C145.279703,449.299027 145.329839,449.063352 145.49,448.91 L150.4,444.26 C150.502665,444.170658 150.633908,444.120999 150.77,444.12 L165.77,444.12 C165.982498,444.120979 166.174667,444.246494 166.260971,444.44068 C166.347276,444.634865 166.311669,444.861614 166.17,445.02 L161.97,449.67 C161.869296,449.772549 161.73357,449.833269 161.59,449.84 Z" id="Path" fill="#FEF3F9"></path>
            <path d="M186.5,449.84 L170.62,449.84 C170.411717,449.840184 170.221897,449.720565 170.132184,449.532594 C170.04247,449.344623 170.068859,449.121814 170.2,448.96 L174.1,444.31 C174.201467,444.188659 174.351828,444.118979 174.51,444.12 L189.69,444.12 C189.889429,444.11963 190.072826,444.229207 190.167001,444.405 C190.261176,444.580792 190.250794,444.794179 190.14,444.96 L186.94,449.61 C186.841767,449.756255 186.67616,449.842822 186.5,449.84 Z" id="Path" fill="#FEF3F9"></path>
            <path d="M211.39,449.84 L195.39,449.84 C195.192466,449.84617 195.007907,449.741923 194.911217,449.569561 C194.814526,449.3972 194.821766,449.185358 194.93,449.02 L197.81,444.37 C197.908599,444.211464 198.083337,444.116498 198.27,444.12 L213.58,444.12 C213.765134,444.119509 213.937614,444.213894 214.037009,444.370085 C214.136403,444.526276 214.148854,444.722498 214.07,444.89 L211.89,449.53 C211.799191,449.72302 211.603266,449.844493 211.39,449.84 Z" id="Path" fill="#FEF3F9"></path>
            <path d="M236.26,449.84 L220.15,449.84 C219.971203,449.839471 219.80426,449.750475 219.704158,449.602325 C219.604057,449.454175 219.583778,449.266082 219.65,449.1 L221.52,444.46 C221.602977,444.251817 221.805917,444.116524 222.03,444.12 L237.43,444.12 C237.595386,444.12126 237.751074,444.198241 237.852478,444.328897 C237.953883,444.459554 237.989821,444.629475 237.95,444.79 L236.78,449.44 C236.719932,449.677481 236.504943,449.842857 236.26,449.84 Z" id="Path" fill="#FEF3F9"></path>
            <path d="M261.11,449.84 L245,449.84 C244.840259,449.842875 244.687746,449.773537 244.584894,449.651279 C244.482043,449.529022 244.43983,449.366892 244.47,449.21 L245.33,444.56 C245.378041,444.305065 245.600578,444.120317 245.86,444.12 L261.31,444.12 C261.45675,444.119899 261.597222,444.179529 261.699086,444.285167 C261.800951,444.390804 261.855435,444.53335 261.85,444.68 L261.7,449.32 C261.695133,449.468813 261.629037,449.609012 261.517337,449.707459 C261.405637,449.805907 261.258245,449.853866 261.11,449.84 Z" id="Path" fill="#FEF3F9"></path>
            <path d="M285.93,449.84 L269.77,449.84 C269.479405,449.840199 269.240763,449.610395 269.23,449.32 L269.08,444.68 C269.074565,444.53335 269.129049,444.390804 269.230914,444.285167 C269.332778,444.179529 269.47325,444.119899 269.62,444.12 L285.07,444.12 C285.330887,444.116215 285.555721,444.30287 285.6,444.56 L286.46,449.21 C286.49017,449.366892 286.447957,449.529022 286.345106,449.651279 C286.242254,449.773537 286.089741,449.842875 285.93,449.84 Z" id="Path" fill="#FEF3F9"></path>
            <path d="M310.73,449.84 L294.62,449.84 C294.375057,449.842857 294.160068,449.677481 294.1,449.44 L292.93,444.79 C292.890179,444.629475 292.926117,444.459554 293.027522,444.328897 C293.128926,444.198241 293.284614,444.12126 293.45,444.12 L308.86,444.12 C309.081308,444.117821 309.28067,444.253387 309.36,444.46 L311.23,449.1 C311.296222,449.266082 311.275943,449.454175 311.175842,449.602325 C311.07574,449.750475 310.908797,449.839471 310.73,449.84 Z" id="Path" fill="#FEF3F9"></path>
            <path d="M335.5,449.84 L319.5,449.84 C319.290335,449.840555 319.099301,449.719697 319.01,449.53 L316.83,444.89 C316.751146,444.722498 316.763597,444.526276 316.862991,444.370085 C316.962386,444.213894 317.134866,444.119509 317.32,444.12 L332.63,444.12 C332.816663,444.116498 332.991401,444.211464 333.09,444.37 L336,449 C336.126981,449.171672 336.13854,449.402778 336.029323,449.586263 C335.920105,449.769749 335.711445,449.869772 335.5,449.84 Z" id="Path" fill="#FEF3F9"></path>
            <path d="M360.27,449.84 L344.38,449.84 C344.20384,449.842822 344.038233,449.756255 343.94,449.61 L340.74,444.96 C340.629206,444.794179 340.618824,444.580792 340.712999,444.405 C340.807174,444.229207 340.990571,444.11963 341.19,444.12 L356.37,444.12 C356.528172,444.118979 356.678533,444.188659 356.78,444.31 L360.68,448.96 C360.819019,449.117971 360.851413,449.343225 360.762544,449.533969 C360.673674,449.724714 360.480376,449.844815 360.27,449.84 Z" id="Path" fill="#FEF3F9"></path>
            <path d="M385,449.84 L369.29,449.84 C369.138495,449.843123 368.992899,449.781245 368.89,449.67 L364.68,445 C364.538331,444.841614 364.502724,444.614865 364.589029,444.42068 C364.675333,444.226494 364.867502,444.100979 365.08,444.1 L380.08,444.1 C380.216092,444.100999 380.347335,444.150658 380.45,444.24 L385.36,448.89 C385.532824,449.038074 385.59426,449.278607 385.513615,449.491422 C385.432969,449.704237 385.227554,449.843648 385,449.84 Z" id="Path" fill="#FEF3F9"></path>
            <path d="M153.74,458.53 L136.69,458.53 C136.470493,458.522999 136.276191,458.386083 136.195752,458.181725 C136.115313,457.977367 136.164158,457.744745 136.32,457.59 L142.16,452.07 C142.257824,451.971796 142.391407,451.917641 142.53,451.92 L158.74,451.92 C158.952498,451.920979 159.144667,452.046494 159.230971,452.24068 C159.317276,452.434865 159.281669,452.661614 159.14,452.82 L154.14,458.35 C154.036015,458.460954 153.892006,458.525758 153.74,458.53 Z" id="Path" fill="#FEF3F9"></path>
            <path d="M180.53,458.53 L163.34,458.53 C163.131624,458.525372 162.943768,458.403355 162.854816,458.214862 C162.765864,458.02637 162.791103,457.803791 162.92,457.64 L167.55,452.11 C167.657003,451.990355 167.809493,451.921372 167.97,451.92 L184.33,451.92 C184.531038,451.920801 184.714988,452.033216 184.807407,452.211754 C184.899827,452.390291 184.885413,452.605389 184.77,452.77 L181,458.29 C180.895755,458.446319 180.717751,458.537215 180.53,458.53 Z" id="Path" fill="#FEF3F9"></path>
            <path d="M207.31,458.53 L190,458.53 C189.804868,458.525281 189.626855,458.417495 189.532237,458.246772 C189.43762,458.076049 189.440574,457.867968 189.54,457.7 L192.97,452.18 C193.067564,452.01911 193.241841,451.920605 193.43,451.92 L209.92,451.92 C210.103018,451.924662 210.271719,452.020085 210.370008,452.17454 C210.468298,452.328995 210.48329,452.522233 210.41,452.69 L207.81,458.22 C207.721247,458.414839 207.523982,458.537143 207.31,458.53 Z" id="Path" fill="#FEF3F9"></path>
            <path d="M144.59,468.63 L126,468.63 C125.778277,468.632687 125.577447,468.499558 125.493575,468.294292 C125.409703,468.089027 125.459839,467.853352 125.62,467.7 L132.62,461.08 C132.720716,460.98624 132.852426,460.932844 132.99,460.93 L150.56,460.93 C150.776626,460.927304 150.973893,461.054333 151.06107,461.252661 C151.148248,461.45099 151.108457,461.68222 150.96,461.84 L144.96,468.46 C144.863575,468.562777 144.730791,468.623785 144.59,468.63 Z" id="Path" fill="#FEF3F9"></path>
            <path d="M173.59,468.63 L154.86,468.63 C154.649674,468.629526 154.45876,468.506974 154.370757,468.315943 C154.282754,468.124912 154.313677,467.900166 154.45,467.74 L160,461.13 C160.097572,461.00252 160.249473,460.928422 160.41,460.93 L178.14,460.93 C178.341038,460.930801 178.524988,461.043216 178.617407,461.221754 C178.709827,461.400291 178.695413,461.615389 178.58,461.78 L174,468.4 C173.907768,468.537594 173.755499,468.623012 173.59,468.63 Z" id="Path" fill="#FEF3F9"></path>
            <path d="M202.57,468.63 L183.72,468.63 C183.522466,468.63617 183.337907,468.531923 183.241217,468.359561 C183.144526,468.1872 183.151766,467.975358 183.26,467.81 L187.37,461.19 C187.46283,461.029214 187.634341,460.930119 187.82,460.93 L205.68,460.93 C205.865134,460.929509 206.037614,461.023894 206.137009,461.180085 C206.236403,461.336276 206.248854,461.532498 206.17,461.7 L203.06,468.32 C202.970699,468.509697 202.779665,468.630555 202.57,468.63 Z" id="Path" fill="#FEF3F9"></path>
            <path d="M234.08,458.53 L216.66,458.53 C216.478562,458.530843 216.308829,458.440511 216.208184,458.289544 C216.107539,458.138577 216.089438,457.947157 216.16,457.78 L218.38,452.26 C218.45933,452.053387 218.658692,451.917821 218.88,451.92 L235.47,451.92 C235.635386,451.92126 235.791074,451.998241 235.892478,452.128897 C235.993883,452.259554 236.029821,452.429475 235.99,452.59 L234.6,458.12 C234.543879,458.361457 234.327887,458.531759 234.08,458.53 Z" id="Path" fill="#FEF3F9"></path>
            <path d="M318.29,468.63 L212.59,468.63 C212.411203,468.629471 212.24426,468.540475 212.144158,468.392325 C212.044057,468.244175 212.023778,468.056082 212.09,467.89 L214.75,461.27 C214.835904,461.068696 215.031212,460.935887 215.25,460.93 L315.63,460.93 C315.850442,460.930653 316.048355,461.065234 316.13,461.27 L318.79,467.89 C318.856222,468.056082 318.835943,468.244175 318.735842,468.392325 C318.63574,468.540475 318.468797,468.629471 318.29,468.63 Z" id="Path" fill="#FEF3F9"></path>
            <path d="M260.82,458.53 L243.35,458.53 C243.189388,458.529804 243.037198,458.458122 242.934757,458.33442 C242.832316,458.210718 242.790257,458.047834 242.82,457.89 L243.82,452.36 C243.868041,452.105065 244.090578,451.920317 244.35,451.92 L261,451.92 C261.14675,451.919899 261.287222,451.979529 261.389086,452.085167 C261.490951,452.190804 261.545435,452.33335 261.54,452.48 L261.36,458 C261.354549,458.294321 261.114372,458.53005 260.82,458.53 Z" id="Path" fill="#FEF3F9"></path>
            <path d="M287.53,458.53 L270.06,458.53 C269.765628,458.53005 269.525451,458.294321 269.52,458 L269.34,452.48 C269.334565,452.33335 269.389049,452.190804 269.490914,452.085167 C269.592778,451.979529 269.73325,451.919899 269.88,451.92 L286.51,451.92 C286.769422,451.920317 286.991959,452.105065 287.04,452.36 L288.04,457.89 C288.069225,458.044458 288.029693,458.203984 287.931726,458.326923 C287.83376,458.449861 287.687084,458.524007 287.53,458.53 Z" id="Path" fill="#FEF3F9"></path>
            <path d="M314.22,458.53 L296.8,458.53 C296.553376,458.528117 296.339367,458.359379 296.28,458.12 L294.89,452.59 C294.84975,452.427769 294.886897,452.256043 294.990597,452.12495 C295.094298,451.993858 295.25286,451.918177 295.42,451.92 L312,451.92 C312.221308,451.917821 312.42067,452.053387 312.5,452.26 L314.72,457.78 C314.790562,457.947157 314.772461,458.138577 314.671816,458.289544 C314.571171,458.440511 314.401438,458.530843 314.22,458.53 Z" id="Path" fill="#FEF3F9"></path>
            <path d="M340.89,458.53 L323.57,458.53 C323.360335,458.530555 323.169301,458.409697 323.08,458.22 L320.49,452.69 C320.411146,452.522498 320.423597,452.326276 320.522991,452.170085 C320.622386,452.013894 320.794866,451.919509 320.98,451.92 L337.46,451.92 C337.648683,451.918604 337.823881,452.017629 337.92,452.18 L341.35,457.7 C341.456296,457.86695 341.462743,458.078674 341.366803,458.251783 C341.270863,458.424892 341.08791,458.531646 340.89,458.53 Z" id="Path" fill="#FEF3F9"></path>
            <path d="M367.55,458.53 L350.35,458.53 C350.169291,458.530335 350.000393,458.440256 349.9,458.29 L346.11,452.77 C345.994587,452.605389 345.980173,452.390291 346.072593,452.211754 C346.165012,452.033216 346.348962,451.920801 346.55,451.92 L362.91,451.92 C363.071067,451.918778 363.224576,451.988222 363.33,452.11 L367.96,457.64 C368.096323,457.800166 368.127246,458.024912 368.039243,458.215943 C367.95124,458.406974 367.760326,458.529526 367.55,458.53 Z" id="Path" fill="#FEF3F9"></path>
            <path d="M372.4,464.32 L354.33,464.32 C354.152353,464.317653 353.985959,464.232607 353.88,464.09 L352.3,461.78 C352.183524,461.613916 352.169954,461.396565 352.264868,461.217283 C352.359782,461.038001 352.547166,460.927037 352.75,460.93 L370.47,460.93 C370.63269,460.931265 370.786472,461.004495 370.89,461.13 L372.82,463.43 C372.948897,463.593791 372.974136,463.81637 372.885184,464.004862 C372.796232,464.193355 372.608376,464.315372 372.4,464.32 Z" id="Path" fill="#FEF3F9"></path>
            <path d="M376,468.63 L357.29,468.63 C357.114273,468.631019 356.949467,468.54487 356.85,468.4 L355.08,465.82 C354.964587,465.655389 354.950173,465.440291 355.042593,465.261754 C355.135012,465.083216 355.318962,464.970801 355.52,464.97 L373.86,464.97 C374.021773,464.975144 374.174039,465.047651 374.28,465.17 L376.44,467.74 C376.580376,467.904276 376.609306,468.136418 376.513542,468.330122 C376.417778,468.523826 376.215761,468.641792 376,468.63 Z" id="Path" fill="#FEF3F9"></path>
            <path d="M404.87,468.63 L386.29,468.63 C386.138741,468.631861 385.993637,468.570191 385.89,468.46 L383.56,465.88 C383.420815,465.71941 383.3866,465.493005 383.472115,465.298457 C383.557631,465.10391 383.747573,464.976035 383.96,464.97 L402.14,464.97 C402.280667,464.972259 402.415717,465.025568 402.52,465.12 L405.24,467.7 C405.398824,467.852094 405.449554,468.085306 405.368263,468.289632 C405.286972,468.493958 405.089899,468.628581 404.87,468.63 Z" id="Path" fill="#FEF3F9"></path>
            <path d="M347.16,468.63 L328.31,468.63 C328.100335,468.630555 327.909301,468.509697 327.82,468.32 L326.61,465.75 C326.532278,465.581249 326.545004,465.384666 326.643835,465.227345 C326.742665,465.070023 326.914239,464.97323 327.1,464.97 L345.57,464.97 C345.757649,464.972512 345.931066,465.070531 346.03,465.23 L347.62,467.81 C347.728234,467.975358 347.735474,468.1872 347.638783,468.359561 C347.542093,468.531923 347.357534,468.63617 347.16,468.63 Z" id="Path" fill="#FEF3F9"></path>
            <path d="M394.19,458.53 L377.19,458.53 C377.034749,458.527301 376.887063,458.462463 376.78,458.35 L371.78,452.82 C371.637091,452.660265 371.60218,452.431129 371.691034,452.236082 C371.779889,452.041035 371.975688,451.917001 372.19,451.92 L388.39,451.92 C388.528593,451.917641 388.662176,451.971796 388.76,452.07 L394.6,457.59 C394.773574,457.745416 394.827898,457.994634 394.734751,458.208189 C394.641605,458.421745 394.421993,458.55148 394.19,458.53 Z" id="Path" fill="#FEF3F9"></path>
            <polygon id="Path" fill="#F4D37E" points="310.66 240.61 271.56 273.61 228.88 243.08 239.06 215.24 241.16 204.6 245.3 183.56 288.13 182.38 289.98 189.88 294.97 210.11"></polygon>
            <path d="M290,189.88 C285.66,197.54 273.75,207.88 241.18,204.6 L245.32,183.6 L288.15,182.42 L290,189.88 Z" id="Path" fill="#DEB449"></path>
            <path d="M306.9,128.42 C306.9,165.35 289.09,195.29 267.12,195.29 C245.15,195.29 227.34,165.35 227.34,128.42 C227.34,91.49 245.15,80.54 267.12,80.54 C289.09,80.54 306.9,91.49 306.9,128.42 Z" id="Path" fill="#F7DB91"></path>
            <path d="M286.730035,84.27 C286.730035,84.27 286.88,105.61 267.62,107.49 C248.36,109.37 230.85,97.77 226.41,123 L226.41,100.38 L247.74,87.83 L286.730035,84.27 Z" id="Path" fill="#DEB449"></path>
            <path d="M311.05,96.81 C314.65,109.42 305.05,165.73 299.65,177.14 C294.25,188.55 282.33,195.14 266.01,195.29 C245.2,195.48 238.15,185.2 233.95,179.2 C229.75,173.2 229.38,161.66 223.95,118.43 C218.52,75.2 252.83,69.38 265.44,69.38 C278.05,69.38 284,69.19 286.44,77.59 C304.4,76.6 307.45,84.2 311.05,96.81 Z M271.21,103.05 C259.72,108.4 239.37,97.61 231.59,106.36 C223.81,115.11 228.59,143.02 231.15,154.74 C232.15,159.37 245.35,155.74 253.47,160 C242.3,170.53 253.47,179.52 265.75,179.52 C277.4,179.52 288.46,175.8 281.02,161.52 C286.73,155.33 299.02,161.21 301.47,155.95 C305.03,148.38 303.04,113.13 303.04,113.13 C298.18,111.67 287.04,98.06 287.04,87.86 C283.623613,94.5608712 278.046082,99.9129055 271.21,103.05 Z" id="Shape" fill="#232323" fill-rule="nonzero"></path>
            <path d="M253.47,126 C253.47,129.15 251.72,131.7 249.58,131.7 C247.44,131.7 245.69,129.15 245.69,126 C245.69,122.85 247.43,120.3 249.58,120.3 C251.73,120.3 253.47,122.85 253.47,126 Z" id="Path" fill="#232323"></path>
            <path d="M286.73,126 C286.73,129.15 284.99,131.7 282.84,131.7 C280.69,131.7 279,129.15 279,126 C279,122.85 280.75,120.3 282.89,120.3 C285.03,120.3 286.73,122.85 286.73,126 Z" id="Path" fill="#232323"></path>
            <path d="M255.16,165.33 L278.06,165.33 C278.06,165.33 275.59,175.24 267.54,175.24 C259.49,175.24 256.13,169.44 255.16,165.33 Z" id="Path" fill="#FFFFFF"></path>
            <path d="M266.61,131.7 C266.61,131.7 252,155.1 266.61,155.070029 L266.61,131.7 Z" id="Path" fill="#DEB449"></path>
            <path d="M221.5,129.6 C221.085483,127.347004 220.877951,125.06081 220.88,122.77 C220.88,99.77 241.16,85.04 266.17,85.04 C291.18,85.04 311.47,99.79 311.47,122.77 C311.467082,125.060585 311.259591,127.346332 310.85,129.6 L316.05,129.6 C317.28,125.53 318.41,121.22 317.96,116.81 C315.76,95.26 297.84,74.42 266.17,74.42 C237.57,74.42 214.95,96.9 214.95,119.62 C214.760547,123.008831 215.218722,126.402718 216.3,129.62 L221.5,129.6 Z" id="Path" fill="#9B9B9B"></path>
            <path d="M223.51,154.52 L218.87,155.01 C213.682829,155.67449 208.924387,152.047737 208.19,146.87 L205.59,124.62 C205.354432,122.133757 206.125444,119.656856 207.730503,117.743565 C209.335562,115.830275 211.64067,114.640326 214.13,114.44 L218.78,113.94 C221.554668,113.589958 224.096863,115.531109 224.49,118.3 L228.08,149.07 C228.204724,150.40043 227.791712,151.725427 226.93312,152.74935 C226.074528,153.773273 224.841803,154.410915 223.51,154.52 Z" id="Path" fill="#9B9B9B"></path>
            <path d="M309.72,154.52 L314.36,155.01 C319.532647,155.650859 324.265352,152.030162 325,146.87 L327.59,124.62 C327.828356,122.133176 327.058355,119.654769 325.452754,117.740833 C323.847154,115.826897 321.540387,114.637682 319.05,114.44 L314.41,113.94 C311.635332,113.589958 309.093137,115.531109 308.7,118.3 L305.11,149.07 C304.985513,150.406847 305.403906,151.737589 306.270999,152.762678 C307.138092,153.787767 308.38102,154.421058 309.72,154.52 Z" id="Path" fill="#9B9B9B"></path>
            <path d="M278.06,72.52 C278.06,72.52 274.96,82.69 257.06,82.72 C239.16,82.75 233.56,84.27 233.56,84.27 C233.56,84.27 246.76,70.08 278.06,72.52 Z" id="Path" fill="#232323"></path>
            <path d="M334.45,302.78 C333.23,303.18 332.13,303.55 331.18,303.9 C331.74,309.14 332.38,321.39 333.04,332.82 L333.11,334.12 C333.29,337.3 333.49,340.38 333.68,343.21 C334.03,348.38 334.38,352.72 334.74,355.21 C335.8,361.21 336.65,367.48 337.33,373.33 C339.05,388.1 339.67,400.39 339.67,400.39 C336.82,400.31 198.67,400.39 198.67,400.39 L199.38,376.53 L199.86,360.8 L200.31,345.88 L201.54,304.63 C199.571846,304.058466 197.567265,303.620799 195.54,303.32 C185.47,301.58 167.69,299.68 160.89,298.99 L158.14,298.7 C158.14,298.7 173.42,234.92 182.82,224.81 C199.9,214.07 217.64,209.87 241.05,204.62 C241.05,204.62 239.59,213.46 243.94,221.07 C254.43,239.37 289.12,236.12 293.75,215.54 C294.86,210.61 293.58,204.63 293.58,204.63 C293.58,204.63 341.58,214.63 350.89,225.71 C358.17,238 371.55,292.38 371.55,292.38 L368.05,293.3 C360.83,295.17 344,299.66 334.45,302.78 Z" id="Path" fill="#F55523"></path>
            <polygon id="Path" fill="#1A0845" points="321.45 264.99 331.17 303.9 333.11 334.12 321.45 302.47"></polygon>
            <polygon id="Path" fill="#1A0845" points="208.05 325.87 202.85 348.11 199.89 360.76 200.34 345.84 201.57 304.59 208.05 262.06"></polygon>
            <path d="M178.25,426.71 C178.25,426.71 129.25,429.34 118.01,434.36 C106.77,439.38 119.71,464.82 127.56,465.9 C133.3,466.68 181.9,461.77 188.77,454.68 L178.25,426.71 Z" id="Path" fill="#424242"></path>
            <path d="M178.25,426.71 C178.25,426.71 157,431.23 153,436.4 C149,441.57 148.35,455.6 151.29,456.19 C154.23,456.78 157.95,461.39 188.75,454.68 L178.25,426.71 Z" id="Path" fill="#F7DB91"></path>
            <path d="M177.69,426.46 L188.57,455.16 L390.44,418.16 C410.13,413.81 444.22,395.77 439.83,380.28 C434.5,361.49 419.12,349.48 399.7,354.93 L177.69,426.46 Z" id="Path" fill="#0058BF"></path>
            <path d="M202.85,348.11 L200.34,345.84 L187.34,334.14 L195.52,303.28 C185.45,301.54 167.67,299.64 160.87,298.95 L153.14,338.41 C152.169555,343.354374 154.354209,348.384252 158.63,351.05 L199.36,376.49 L213.17,385.11 L224,367.24 L202.85,348.11 Z" id="Path" fill="#F7DB91"></path>
            <path d="M377.63,337.78 L368.08,293.26 C360.83,295.17 344,299.66 334.45,302.78 L343.37,334.12 L333.68,343.21 L307.34,367.88 L318.45,385.56 L337.33,373.29 L372.38,350.52 C376.6017,347.77219 378.690087,342.704371 377.63,337.78 Z" id="Path" fill="#F7DB91"></path>
            <path d="M361.4,426.06 L350.92,454.92 L142.07,418.18 C122.32,414.11 99.51,398.41 99.16,386.78 C98.68,370.69 121.98,350.13 141.47,355.31 L361.4,426.06 Z" id="Path" fill="#2C76CC"></path>
            <path d="M361.4,426.06 C361.4,426.06 412.98,429.48 424.4,434.06 C435.82,438.64 420.33,462.3 412.53,463.69 C406.83,464.69 358.07,461.75 350.92,454.94 L361.4,426.06 Z" id="Path" fill="#424242"></path>
            <path d="M361.4,426.06 C361.4,426.06 381.75,430.21 385.91,435.21 C390.07,440.21 391.33,454.21 388.41,454.92 C385.49,455.63 381.97,460.38 350.92,454.92 L361.4,426.06 Z" id="Path" fill="#F7DB91"></path>
            <path d="M344,302.49 L333.22,387.38 L196.54,387.38 L194.94,374.73 L185.76,302.49 C185.757346,299.950146 186.764439,297.513409 188.55945,295.716523 C190.354461,293.919636 192.790145,292.909999 195.33,292.91 L334.42,292.91 C336.961588,292.907343 339.399842,293.915808 341.197017,295.712983 C342.994192,297.510158 344.002657,299.948412 344,302.49 Z" id="Path" fill="#E6E7E8"></path>
            <rect id="Rectangle" fill="#D1D3D4" x="193.85" y="387.38" width="142.06" height="8.02" rx="2.71"></rect>
            <path d="M264.88,329.3 C264.058696,329.300769 263.240129,329.394702 262.44,329.58 C262.44,329.91 262.5,330.25 262.5,330.58 C262.500078,335.415124 258.595045,339.342496 253.76,339.37 C253.76,339.73 253.76,340.09 253.76,340.46 C253.76,346.629021 258.760979,351.63 264.93,351.63 C271.099021,351.63 276.1,346.629021 276.1,340.46 C276.1,334.290979 271.099021,329.29 264.93,329.29 L264.88,329.3 Z" id="Path" fill="#D1D3D4"></path>
            <path d="M66.11,173.55 C58.96,173.55 56.11,176.5 56.11,182.85 C56.11,183.44 55,183.44 55,182.85 C55,176.5 52.74,173.55 45,173.55 C44.43,173.55 44.43,172.44 45,172.44 C52.94,172.44 55,168.76 55,163.14 C55,162.56 56.11,162.56 56.11,163.14 C56.11,169.83 58.81,172.44 66.11,172.44 C66.68,172.44 66.68,173.55 66.11,173.55 Z" id="Path" fill="#FFFFFF"></path>
            <path d="M119.66,124.89 C108.99,124.89 104.78,129.3 104.78,138.78 C104.78,139.65 103.12,139.65 103.12,138.78 C103.12,129.3 99.75,124.89 88.24,124.89 C87.38,124.89 87.38,123.23 88.24,123.23 C100.1,123.23 103.12,117.74 103.12,109.36 C103.12,108.49 104.78,108.49 104.78,109.36 C104.78,119.36 108.78,123.23 119.66,123.23 C120.52,123.23 120.52,124.89 119.66,124.89 Z" id="Path" fill="#FFFFFF"></path>
            <path d="M109.73,227.66 C101.57,227.66 98.35,231.03 98.35,238.29 C98.35,238.95 97.08,238.95 97.08,238.29 C97.08,231.03 94.5,227.66 85.69,227.66 C85.03,227.66 85.04,226.39 85.69,226.39 C94.77,226.39 97.08,222.19 97.08,215.78 C97.08,215.11 98.35,215.11 98.35,215.78 C98.35,223.42 101.44,226.39 109.73,226.39 C110.39,226.39 110.39,227.66 109.73,227.66 Z" id="Path" fill="#FFFFFF"></path>
        </g>
    </g>
</svg>