<?xml version="1.0" encoding="UTF-8"?>
<svg width="465px" height="386px" viewBox="0 0 465 386" version="1.1" xmlns="http://www.w3.org/2000/svg" xmlns:xlink="http://www.w3.org/1999/xlink">
    <!-- Generator: Sketch 52.5 (67469) - http://www.bohemiancoding.com/sketch -->
    <title>seo-p</title>
    <desc>Created with Sketch.</desc>
    <g id="Page-1" stroke="none" stroke-width="1" fill="none" fill-rule="evenodd">
        <g id="seo-p">
            <path d="M463.54,295.37 C463.540001,312.017481 450.04748,325.514478 433.4,325.52 L209,325.52 C192.350902,325.514481 178.855519,312.019098 178.85,295.37 L178.85,57.15 C179.019971,40.6198037 192.46893,27.3091262 209,27.31 L433.4,27.31 C449.927173,27.314608 463.37007,40.6236999 463.54,57.15 L463.54,295.37 Z" id="Path" stroke="#F2F2F2" fill="#FFFFFF"></path>
            <path d="M463.54,57.15 L178.88,57.15 C179.049844,40.6314877 192.480622,27.3255641 209,27.31 L433.4,27.31 C449.927173,27.314608 463.37007,40.6236999 463.54,57.15 Z" id="Path" fill="#6AC4F9"></path>
            <path d="M214.93,42.23 C214.93,40.001413 213.587532,37.9922671 211.528586,37.1394238 C209.46964,36.2865805 207.099691,36.7579927 205.523842,38.3338416 C203.947993,39.9096906 203.47658,42.2796398 204.329424,44.3385857 C205.182267,46.3975316 207.191413,47.74 209.42,47.74 C212.463089,47.74 214.93,45.273089 214.93,42.23 Z" id="Path" fill="#FFFFFF"></path>
            <path d="M232,42.23 C231.999996,40.0005038 230.656443,37.9907281 228.59627,37.1384741 C226.536096,36.28622 224.165364,36.759468 222.590304,38.3373911 C221.015245,39.9153142 220.546304,42.2869017 221.402299,44.345524 C222.258295,46.4041463 224.270507,47.7440463 226.5,47.74 C229.539183,47.7344842 232.000005,45.269188 232,42.23 Z" id="Path" fill="#FFFFFF"></path>
            <path d="M249.08,42.23 C249.08,40.001413 247.737532,37.9922671 245.678586,37.1394238 C243.61964,36.2865805 241.249691,36.7579927 239.673842,38.3338416 C238.097993,39.9096906 237.62658,42.2796398 238.479424,44.3385857 C239.332267,46.3975316 241.341413,47.74 243.57,47.74 C246.613089,47.74 249.08,45.273089 249.08,42.23 Z" id="Path" fill="#FFFFFF"></path>
            <path d="M375.09,47.74 L271.3,47.74 C268.260817,47.7344842 265.799995,45.269188 265.8,42.23 C265.799995,39.190812 268.260817,36.7255158 271.3,36.72 L375.09,36.72 C378.133089,36.72 380.6,39.186911 380.6,42.23 C380.6,45.273089 378.133089,47.74 375.09,47.74 Z" id="Path" fill="#FFFFFF"></path>
            <path d="M280.1,119.3 L263,117 C263,116.54 263.05,116.06 263.05,115.59 C263.0633,110.990197 261.455911,106.532701 258.51,103 L271.24,91.34 C277.93281,99.0337355 281.140299,109.155787 280.1,119.3 Z" id="Path" fill="#EF5C00"></path>
            <path d="M273.27,83.2 L255.1,99.75 C253.749933,98.7451325 252.274043,97.9214578 250.71,97.3 L256.42,73.47 C262.809797,75.1382248 268.631066,78.4997051 273.27,83.2 Z" id="Path" fill="#58A5FF"></path>
            <path d="M279.72,121.63 C277.296279,136.025473 266.620137,147.642245 252.48,151.27 L248.67,134.48 C255.833859,132.471825 261.251624,126.59355 262.67,119.29 L279.72,121.63 Z" id="Path" fill="#00D4A4"></path>
            <path d="M250.42,79.32 L246.48,96.13 C240.090807,95.0975377 233.604921,97.295699 229.16,102 L216,90.84 C224.165361,81.791672 236.272875,77.3603592 248.35,79 C249.05,79.07 249.73,79.19 250.42,79.32 Z" id="Path" fill="#EF5C00"></path>
            <path d="M223.75,115.54 C223.73747,117.670679 224.075308,119.788925 224.75,121.81 L208.81,128.45 C204.29258,116.361672 206.424096,102.791277 214.43,92.67 L227.59,103.82 C225.084139,107.212678 223.73766,111.322246 223.75,115.54 Z" id="Path" fill="#00D4A4"></path>
            <path d="M250.2,151.82 C246.326285,152.533622 242.364224,152.631492 238.46,152.11 C225.818347,150.407939 214.955235,142.290865 209.74,130.65 L225.67,124 C229.387779,131.841796 237.811577,136.31389 246.39,135 L250.2,151.82 Z" id="Path" fill="#EF5C00"></path>
            <path d="M308.29,118.42 L306.68,117.54 C307.72,115.626667 308.75,113.71 309.77,111.79 L311.89,107.85 C312.06,107.52 312.25,107.18 312.44,106.85 C314.72,102.54 317.86,96.63 323.64,96.63 C326.51,96.63 328.64,99.1 330.15,100.91 C331.054397,102.024354 331.898922,103.185992 332.68,104.39 C335.11,107.98 337.86,112.04 341.68,112.04 L341.89,112.04 C347.27,111.83 348.38,106.04 349.35,100.98 C349.55,99.98 349.73,98.98 349.94,98.15 C350.33,96.6 350.71,94.6 351.12,92.49 C352.89,83.38 355.12,72.05 360.78,72.05 C364.65,72.05 366.18,80.28 367.78,91.05 C368.035282,93.1421762 368.405845,95.2186677 368.89,97.27 C369.31,98.54 370.08,100.06 371,100.49 C371.316855,100.638225 371.683145,100.638225 372,100.49 C372.609818,100.181712 373.140252,99.7368324 373.55,99.19 L373.71,99 C374.229902,98.3306761 374.854635,97.7498436 375.56,97.28 C376.246386,96.8556895 377.113614,96.8556895 377.8,97.28 C378.621655,97.9883168 379.30048,98.8470312 379.8,99.81 C380.67,101.17 381.75,102.81 382.74,102.81 C384.94,102.81 387.86,98.21 390.44,94.14 C393.69,89.02 396.75,84.19 400.24,84.19 C405.24,84.19 406.78,91.97 408.17,98.84 C408.58,100.9 408.98,102.84 409.42,104.32 C410.1,106.58 412.54,111.15 415.69,110.96 C421.11,110.61 427.08,100.09 431.44,92.42 C432.86,89.92 434.2,87.56 435.37,85.79 L436.9,86.79 C435.76,88.51 434.44,90.79 433.04,93.31 C428.22,101.79 422.22,112.31 415.81,112.78 C411.62,113.04 408.66,108.17 407.66,104.78 C407.19,103.22 406.79,101.23 406.37,99.13 C405.24,93.29 403.77,86 400.3,86 C397.83,86 394.76,90.83 392.05,95.1 C388.95,100 386.05,104.62 382.8,104.62 C380.8,104.62 379.48,102.56 378.31,100.73 C377.912198,99.9950839 377.410353,99.3214655 376.82,98.73 C376.82,98.73 376.67,98.73 376.52,98.81 C375.989952,99.1818472 375.521007,99.6339241 375.13,100.15 L374.96,100.34 C374.364656,101.125813 373.580373,101.748423 372.68,102.15 C371.893511,102.473571 371.006646,102.448128 370.24,102.08 C368.54,101.28 367.59,99.08 367.17,97.77 C366.648208,95.6291364 366.257482,93.4584394 366,91.27 C365.17,85.62 363.42,73.86 360.83,73.86 C356.65,73.86 354.44,85.26 352.98,92.86 C352.56,94.99 352.17,97.01 351.78,98.61 C351.58,99.43 351.4,100.36 351.21,101.35 C350.21,106.53 348.85,113.63 342.01,113.9 C337.01,114.11 333.77,109.29 331.16,105.44 C330.419378,104.2916 329.618248,103.18337 328.76,102.12 C327.46,100.59 325.67,98.49 323.65,98.49 C318.98,98.49 316.14,103.83 314.07,107.73 C313.88,108.1 313.69,108.44 313.51,108.73 L311.4,112.66 C310.36,114.58 309.34,116.51 308.29,118.42 Z" id="Path" fill="#50E3C2"></path>
            <rect id="Rectangle" fill="#F8E71C" x="419.06" y="136.36" width="14.99" height="37.22"></rect>
            <rect id="Rectangle" fill="#BCE11A" x="402.34" y="158.59" width="14.99" height="14.99"></rect>
            <rect id="Rectangle" fill="#FF9F00" x="385.61" y="165.84" width="14.99" height="7.74"></rect>
            <polygon id="Path" fill="#9B9B9B" points="379.94 174.02 379.94 132.67 380.81 132.67 380.81 173.15 440.46 173.15 440.46 174.02"></polygon>
            <path d="M57.54,220.61 C57.05,219.14 56.54,217.71 55.99,216.31 L57.54,220.61 Z" id="Path" fill="#2175FB"></path>
            <path d="M42.25,296.64 C41.09,296.23 39.93,295.86 38.78,295.52 L42.25,296.64 Z" id="Path" fill="#2175FB"></path>
            <path d="M71.15,130 L344.42,130 C352.704271,130 359.42,136.715729 359.42,145 L359.42,320.78 L56.15,320.78 L56.15,145 C56.15,136.715729 62.8657288,130 71.15,130 Z" id="Path" fill="#4F4F4F"></path>
            <rect id="Rectangle" fill="#535461" x="70.55" y="143.95" width="274.48" height="160.36"></rect>
            <polygon id="Path" fill="#E0E0E0" points="415.06 367.84 0.51 367.84 56.15 320.78 359.42 320.78"></polygon>
            <path d="M0.51,367.84 L415.06,367.84 L415.06,370.93 C415.06,374.855204 413.500719,378.619642 410.72518,381.39518 C407.949642,384.170719 404.185204,385.73 400.26,385.73 L15.31,385.73 C11.384796,385.73 7.62035804,384.170719 4.84481964,381.39518 C2.06928124,378.619642 0.51,374.855204 0.51,370.93 L0.51,367.84 Z" id="Path" fill="#BDBDBD"></path>
            <path d="M95.64,333.51 L78.86,333.51 C78.6228353,333.51 78.4095643,333.365608 78.3214835,333.145407 C78.2334028,332.925205 78.2882601,332.673562 78.46,332.51 L83.7,327.51 C83.8083989,327.408154 83.9512653,327.351007 84.1,327.35 L100.1,327.35 C100.342681,327.337067 100.567691,327.476802 100.663693,327.700062 C100.759695,327.923322 100.706328,328.182759 100.53,328.35 L96.04,333.35 C95.9327319,333.453607 95.7891303,333.511048 95.64,333.51 Z" id="Path" fill="#FEF3F9"></path>
            <path d="M122.22,333.51 L105.27,333.51 C105.046459,333.507447 104.844285,333.376648 104.750331,333.173794 C104.656378,332.97094 104.687372,332.732146 104.83,332.56 L108.99,327.56 C109.098696,327.428762 109.259605,327.351964 109.43,327.35 L125.63,327.35 C125.843214,327.355621 126.036795,327.475879 126.136304,327.664532 C126.235813,327.853185 126.225756,328.080856 126.11,328.26 L122.7,333.26 C122.587747,333.413634 122.410234,333.506089 122.22,333.51 Z" id="Path" fill="#FEF3F9"></path>
            <path d="M148.79,333.51 L131.7,333.51 C131.489024,333.514349 131.292908,333.401784 131.190249,333.217418 C131.087591,333.033052 131.09519,332.807054 131.21,332.63 L134.28,327.63 C134.386505,327.460882 134.570227,327.355898 134.77,327.35 L151.11,327.35 C151.308561,327.351147 151.492735,327.453791 151.598156,327.622059 C151.703577,327.790327 151.715591,328.00083 151.63,328.18 L149.31,333.18 C149.212385,333.378918 149.011548,333.506372 148.79,333.51 Z" id="Path" fill="#FEF3F9"></path>
            <path d="M175.33,333.51 L158.14,333.51 C157.947846,333.5078 157.769256,333.410568 157.663124,333.250368 C157.556991,333.090168 157.537097,332.887801 157.61,332.71 L159.61,327.76 C159.698804,327.538965 159.911812,327.393015 160.15,327.39 L176.58,327.39 C176.759425,327.386815 176.929873,327.468313 177.040046,327.609964 C177.15022,327.751616 177.187253,327.93688 177.14,328.11 L175.9,333.11 C175.817329,333.353196 175.586815,333.51496 175.33,333.51 Z" id="Path" fill="#FEF3F9"></path>
            <path d="M201.85,333.51 L184.61,333.51 C184.438913,333.509612 184.276725,333.433709 184.166819,333.302593 C184.056913,333.171477 184.010502,332.998525 184.04,332.83 L184.95,327.83 C185.002133,327.555075 185.240214,327.354586 185.52,327.35 L202,327.35 C202.157354,327.349906 202.307993,327.413751 202.417358,327.526887 C202.526723,327.640023 202.585426,327.792739 202.58,327.95 L202.41,332.95 C202.404659,333.25704 202.15704,333.504659 201.85,333.51 Z" id="Path" fill="#FEF3F9"></path>
            <path d="M228.34,333.51 L211.1,333.51 C210.787326,333.510186 210.530782,333.262489 210.52,332.95 L210.36,327.95 C210.354612,327.79446 210.41196,327.643279 210.519153,327.530445 C210.626345,327.417611 210.774388,327.35259 210.93,327.35 L227.42,327.35 C227.701248,327.350637 227.94151,327.552963 227.99,327.83 L228.91,332.83 C228.939498,332.998525 228.893087,333.171477 228.783181,333.302593 C228.673275,333.433709 228.511087,333.509612 228.34,333.51 Z" id="Path" fill="#FEF3F9"></path>
            <path d="M254.8,333.51 L237.62,333.51 C237.353404,333.512347 237.120795,333.329583 237.06,333.07 L235.81,328.07 C235.767037,327.897281 235.805753,327.714398 235.915024,327.573907 C236.024295,327.433417 236.19202,327.350874 236.37,327.35 L252.81,327.35 C253.046279,327.351561 253.257098,327.498737 253.34,327.72 L255.34,332.67 C255.425918,332.853639 255.411527,333.06853 255.301892,333.239074 C255.192257,333.409617 255.002735,333.511923 254.8,333.51 Z" id="Path" fill="#FEF3F9"></path>
            <path d="M281.25,333.51 L264.16,333.51 C263.937044,333.511168 263.733875,333.382234 263.64,333.18 L261.31,328.18 C261.224409,328.00083 261.236423,327.790327 261.341844,327.622059 C261.447265,327.453791 261.631439,327.351147 261.83,327.35 L278.17,327.35 C278.370791,327.352219 278.556149,327.458138 278.66,327.63 L281.74,332.63 C281.847681,332.808143 281.85164,333.03033 281.750374,333.212197 C281.649107,333.394063 281.458147,333.507715 281.25,333.51 Z" id="Path" fill="#FEF3F9"></path>
            <path d="M307.68,333.51 L290.68,333.51 C290.492505,333.506099 290.318031,333.413294 290.21,333.26 L286.8,328.26 C286.676962,328.082171 286.663068,327.850662 286.763956,327.659395 C286.864844,327.468127 287.063759,327.348868 287.28,327.35 L303.48,327.35 C303.650395,327.351964 303.811304,327.428762 303.92,327.56 L308.08,332.56 C308.219092,332.726564 308.25357,332.956839 308.169361,333.156836 C308.085151,333.356833 307.896343,333.493093 307.68,333.51 Z" id="Path" fill="#FEF3F9"></path>
            <path d="M334.09,333.51 L317.3,333.51 C317.139493,333.508628 316.987003,333.439645 316.88,333.32 L312.39,328.32 C312.213672,328.152759 312.160305,327.893322 312.256307,327.670062 C312.352309,327.446802 312.577319,327.307067 312.82,327.32 L328.82,327.32 C328.968735,327.321007 329.111601,327.378154 329.22,327.48 L334.46,332.48 C334.651044,332.635337 334.723186,332.894368 334.639944,333.126096 C334.556702,333.357825 334.33622,333.511738 334.09,333.51 Z" id="Path" fill="#FEF3F9"></path>
            <path d="M87.26,342.77 L69.07,342.77 C68.8274682,342.781308 68.6043939,342.637741 68.514222,342.412311 C68.4240501,342.186881 68.4865752,341.929075 68.67,341.77 L74.9,335.87 C75.0047776,335.768789 75.1443304,335.711537 75.29,335.71 L92.59,335.71 C92.8326809,335.697067 93.0576911,335.836802 93.1536928,336.060062 C93.2496945,336.283322 93.1963282,336.542759 93.02,336.71 L87.68,342.6 C87.5695043,342.712267 87.4174758,342.773802 87.26,342.77 Z" id="Path" fill="#FEF3F9"></path>
            <path d="M115.85,342.77 L97.5,342.77 C97.2764642,342.772526 97.072087,342.644149 96.9773152,342.441682 C96.8825433,342.239215 96.9148743,342.000039 97.06,341.83 L102,335.93 C102.108696,335.798762 102.269605,335.721964 102.44,335.72 L119.91,335.72 C120.124444,335.722566 120.319971,335.843256 120.418385,336.033801 C120.516798,336.224347 120.502036,336.453647 120.38,336.63 L116.38,342.52 C116.261517,342.693016 116.05887,342.788604 115.85,342.77 Z" id="Path" fill="#FEF3F9"></path>
            <path d="M144.44,342.77 L126,342.77 C125.789024,342.774349 125.592908,342.661784 125.490249,342.477418 C125.387591,342.293052 125.39519,342.067054 125.51,341.89 L129.16,336 C129.269724,335.829316 129.457137,335.724365 129.66,335.72 L147.2,335.72 C147.400337,335.717698 147.587676,335.818952 147.695502,335.987812 C147.803328,336.156672 147.816371,336.369223 147.73,336.55 L145,342.44 C144.900488,342.656083 144.677241,342.787639 144.44,342.77 Z" id="Path" fill="#FEF3F9"></path>
            <path d="M77.49,353.56 L57.67,353.56 C57.4328353,353.56 57.2195643,353.415608 57.1314835,353.195407 C57.0434028,352.975205 57.0982601,352.723562 57.27,352.56 L64.74,345.5 C64.8447776,345.398789 64.9843304,345.341537 65.13,345.34 L83.89,345.34 C84.1308321,345.331534 84.3518103,345.472867 84.4451259,345.695047 C84.5384415,345.917227 84.4846522,346.173963 84.31,346.34 L77.92,353.4 C77.8054065,353.511211 77.6494176,353.569254 77.49,353.56 Z" id="Path" fill="#FEF3F9"></path>
            <path d="M108.44,353.56 L88.44,353.56 C88.2146521,353.561303 88.0089482,353.431959 87.9124782,353.2283 C87.8160083,353.024641 87.8462374,352.783539 87.99,352.61 L93.92,345.55 C94.0286959,345.418762 94.1896054,345.341964 94.36,345.34 L113.3,345.34 C113.514444,345.342566 113.709971,345.463256 113.808385,345.653801 C113.906798,345.844347 113.892036,346.073647 113.77,346.25 L108.92,353.31 C108.811069,353.46745 108.631456,353.560999 108.44,353.56 Z" id="Path" fill="#FEF3F9"></path>
            <path d="M139.38,353.56 L119.25,353.56 C119.041853,353.557715 118.850893,353.444063 118.749626,353.262197 C118.64836,353.08033 118.652319,352.858143 118.76,352.68 L123.15,345.61 C123.254894,345.44052 123.440694,345.33814 123.64,345.34 L142.69,345.34 C142.885772,345.342697 143.06697,345.443983 143.171825,345.609331 C143.276679,345.774678 143.291036,345.981766 143.21,346.16 L139.9,353.23 C139.802385,353.428918 139.601548,353.556372 139.38,353.56 Z" id="Path" fill="#FEF3F9"></path>
            <path d="M173,342.77 L154.41,342.77 C154.218534,342.771402 154.039155,342.676579 153.932481,342.517576 C153.825808,342.358572 153.806094,342.156633 153.88,341.98 L156.25,336.09 C156.335201,335.870531 156.544614,335.724338 156.78,335.72 L174.48,335.72 C174.65798,335.720874 174.825705,335.803417 174.934976,335.943907 C175.044247,336.084398 175.082963,336.267281 175.04,336.44 L173.56,342.34 C173.49526,342.595606 173.263655,342.773445 173,342.77 Z" id="Path" fill="#FEF3F9"></path>
            <path d="M262.88,353.56 L150.07,353.56 C149.878685,353.559786 149.699782,353.465242 149.591821,353.3073 C149.48386,353.149357 149.460731,352.948335 149.53,352.77 L152.38,345.7 C152.46379,345.480807 152.675356,345.337102 152.91,345.34 L260,345.34 C260.236575,345.338638 260.450267,345.481099 260.54,345.7 L263.38,352.77 C263.452097,352.941795 263.435685,353.137981 263.336047,353.295409 C263.236409,353.452838 263.066122,353.551635 262.88,353.56 Z" id="Path" fill="#FEF3F9"></path>
            <path d="M201.54,342.77 L182.9,342.77 C182.727683,342.773246 182.56315,342.698351 182.452434,342.566268 C182.341718,342.434186 182.296709,342.259102 182.33,342.09 L183.42,336.2 C183.467794,335.926632 183.702538,335.725423 183.98,335.72 L201.74,335.72 C201.895612,335.72259 202.043655,335.787611 202.150847,335.900445 C202.25804,336.013279 202.315388,336.16446 202.31,336.32 L202.12,342.22 C202.109136,342.530885 201.851023,342.775647 201.54,342.77 Z" id="Path" fill="#FEF3F9"></path>
            <path d="M230.05,342.77 L211.41,342.77 C211.098977,342.775647 210.840864,342.530885 210.83,342.22 L210.63,336.32 C210.624574,336.162739 210.683277,336.010023 210.792642,335.896887 C210.902007,335.783751 211.052646,335.719906 211.21,335.72 L229,335.72 C229.281248,335.720637 229.52151,335.922963 229.57,336.2 L230.66,342.09 C230.691156,342.26563 230.639766,342.445828 230.520657,342.578605 C230.401549,342.711381 230.22797,342.781968 230.05,342.77 Z" id="Path" fill="#FEF3F9"></path>
            <path d="M258.54,342.77 L240,342.77 C239.736345,342.773445 239.50474,342.595606 239.44,342.34 L237.95,336.44 C237.907037,336.267281 237.945753,336.084398 238.055024,335.943907 C238.164295,335.803417 238.33202,335.720874 238.51,335.72 L256.21,335.72 C256.448188,335.723015 256.661196,335.868965 256.75,336.09 L259.12,341.98 C259.192438,342.165098 259.165046,342.374398 259.047414,342.534621 C258.929783,342.694843 258.738297,342.78367 258.54,342.77 Z" id="Path" fill="#FEF3F9"></path>
            <path d="M287,342.77 L268.51,342.77 C268.28631,342.773746 268.081854,342.643995 267.99,342.44 L265.22,336.55 C265.134409,336.37083 265.146423,336.160327 265.251844,335.992059 C265.357265,335.823791 265.541439,335.721147 265.74,335.72 L283.34,335.72 C283.540791,335.722219 283.726149,335.828138 283.83,336 L287.49,341.89 C287.597681,342.068143 287.60164,342.29033 287.500374,342.472197 C287.399107,342.654063 287.208147,342.767715 287,342.77 Z" id="Path" fill="#FEF3F9"></path>
            <path d="M315.45,342.77 L297.09,342.77 C296.900753,342.773089 296.723214,342.678653 296.62,342.52 L292.56,336.63 C292.444244,336.450856 292.434187,336.223185 292.533696,336.034532 C292.633205,335.845879 292.826786,335.725621 293.04,335.72 L310.5,335.72 C310.670395,335.721964 310.831304,335.798762 310.94,335.93 L315.89,341.83 C316.035126,342.000039 316.067457,342.239215 315.972685,342.441682 C315.877913,342.644149 315.673536,342.772526 315.45,342.77 Z" id="Path" fill="#FEF3F9"></path>
            <path d="M320.63,349 L301.34,349 C301.149766,348.996089 300.972253,348.903634 300.86,348.75 L299.17,346.29 C299.046962,346.112171 299.033068,345.880662 299.133956,345.689395 C299.234844,345.498127 299.433759,345.378868 299.65,345.38 L318.57,345.38 C318.740395,345.381964 318.901304,345.458762 319.01,345.59 L321.07,348.05 C321.212628,348.222146 321.243622,348.46094 321.149669,348.663794 C321.055715,348.866648 320.853541,348.997447 320.63,349 Z" id="Path" fill="#FEF3F9"></path>
            <path d="M324.49,353.56 L304.49,353.56 C304.301208,353.561222 304.124508,353.467232 304.02,353.31 L302.13,350.56 C302.005993,350.385373 301.990344,350.15597 302.089488,349.966121 C302.188631,349.776272 302.385831,349.658024 302.6,349.66 L322.17,349.66 C322.34226,349.656519 322.507152,349.729804 322.62,349.86 L324.92,352.61 C325.061599,352.780752 325.093404,353.017313 325.001932,353.219401 C324.910461,353.421489 324.711736,353.553705 324.49,353.56 Z" id="Path" fill="#FEF3F9"></path>
            <path d="M355.27,353.56 L335.45,353.56 C335.288933,353.561222 335.135424,353.491778 335.03,353.37 L332.54,350.62 C332.35264,350.458762 332.290559,350.195139 332.386277,349.967237 C332.481996,349.739334 332.713698,349.599101 332.96,349.62 L352.37,349.62 C352.517389,349.618279 352.660085,349.671789 352.77,349.77 L355.67,352.52 C355.87574,352.676046 355.95354,352.949313 355.860843,353.190324 C355.768146,353.431336 355.527281,353.582039 355.27,353.56 Z" id="Path" fill="#FEF3F9"></path>
            <path d="M293.69,353.56 L273.57,353.56 C273.347044,353.561168 273.143875,353.432234 273.05,353.23 L271.76,350.48 C271.678964,350.301766 271.693321,350.094678 271.798175,349.929331 C271.90303,349.763983 272.084228,349.662697 272.28,349.66 L292,349.66 C292.198814,349.66007 292.383738,349.761967 292.49,349.93 L294.19,352.68 C294.305955,352.858573 294.312717,353.086885 294.207534,353.272008 C294.102351,353.45713 293.90276,353.568197 293.69,353.56 Z" id="Path" fill="#FEF3F9"></path>
            <path d="M343.88,342.77 L325.69,342.77 C325.526535,342.76897 325.370823,342.700168 325.26,342.58 L319.93,336.69 C319.755348,336.523963 319.701558,336.267227 319.794874,336.045047 C319.88819,335.822867 320.109168,335.681534 320.35,335.69 L337.65,335.69 C337.798735,335.691007 337.941601,335.748154 338.05,335.85 L344.28,341.75 C344.481763,341.904546 344.556832,342.173998 344.464045,342.410606 C344.371258,342.647214 344.133034,342.793806 343.88,342.77 Z" id="Path" fill="#FEF3F9"></path>
            <path d="M328.3,211 L321.58,211 C320.503193,206.687449 318.79114,202.558975 316.5,198.75 L321.26,194 C322.029651,193.247438 322.463502,192.216435 322.463502,191.14 C322.463502,190.063565 322.029651,189.032562 321.26,188.28 L311.46,178.48 C310.7078,177.713464 309.678956,177.281602 308.605,177.281602 C307.531044,177.281602 306.5022,177.713464 305.75,178.48 L301,183.25 C297.193216,180.963918 293.068303,179.255314 288.76,178.18 L288.76,171.45 C288.760084,170.380414 288.3318,169.355347 287.570805,168.603747 C286.809811,167.852148 285.779503,167.43663 284.71,167.45 L270.85,167.45 C268.640861,167.45 266.85,169.240861 266.85,171.45 L266.85,178.18 C262.537912,179.253393 258.409423,180.962081 254.6,183.25 L249.85,178.49 C248.266986,176.918888 245.713014,176.918888 244.13,178.49 L234.33,188.29 C233.560349,189.042562 233.126498,190.073565 233.126498,191.15 C233.126498,192.226435 233.560349,193.257438 234.33,194.01 L239.09,198.76 C236.796018,202.565152 235.080593,206.69026 234,211 L227.27,211 C225.060861,211 223.27,212.790861 223.27,215 L223.27,228.9 C223.27,231.109139 225.060861,232.9 227.27,232.9 L234,232.9 C235.075314,237.208303 236.783918,241.333216 239.07,245.14 L234.29,250 C233.520349,250.752562 233.086498,251.783565 233.086498,252.86 C233.086498,253.936435 233.520349,254.967438 234.29,255.72 L244.09,265.51 C244.842562,266.279651 245.873565,266.713502 246.95,266.713502 C248.026435,266.713502 249.057438,266.279651 249.81,265.51 L254.56,260.75 C258.368975,263.04114 262.497449,264.753193 266.81,265.83 L266.81,272.55 C266.79663,273.619503 267.212148,274.649811 267.963747,275.410805 C268.715347,276.1718 269.740414,276.600084 270.81,276.6 L284.7,276.6 C285.778228,276.613564 286.816261,276.191226 287.578744,275.428744 C288.341226,274.666261 288.763564,273.628228 288.75,272.55 L288.75,265.83 C293.065006,264.736548 297.19347,263.007649 301,260.7 L305.76,265.46 C306.5122,266.226536 307.541044,266.658398 308.615,266.658398 C309.688956,266.658398 310.7178,266.226536 311.47,265.46 L321.27,255.67 C322.039651,254.917438 322.473502,253.886435 322.473502,252.81 C322.473502,251.733565 322.039651,250.702562 321.27,249.95 L316.51,245.19 C318.791288,241.398617 320.499744,237.290909 321.58,233 L328.3,233 C330.509139,233 332.3,231.209139 332.3,229 L332.3,215.05 C332.31337,213.980497 331.897852,212.950189 331.146253,212.189195 C330.394653,211.4282 329.369586,210.999916 328.3,211 Z M277.78,249.3 C266.722409,249.304039 256.751937,242.644613 252.520384,232.428729 C248.288832,222.212845 250.630105,210.453733 258.451866,202.637699 C266.273626,194.821664 278.034449,192.489003 288.247232,196.728036 C298.460015,200.967069 305.112137,210.942415 305.1,222 C305.08345,237.078322 292.85833,249.294492 277.78,249.3 Z" id="Shape" fill="#FEF3F9" fill-rule="nonzero"></path>
            <path d="M120,247.83 C122.017388,247.872012 124.032344,247.667158 126,247.22 C127.370384,246.914554 128.670154,246.351207 129.83,245.56 C130.728177,244.941658 131.423901,244.072004 131.83,243.06 C132.210104,242.033176 132.396587,240.944793 132.38,239.85 C132.358933,237.287161 131.016773,234.916641 128.83,233.58 C126.47,231.92 122.403333,230.126667 116.63,228.2 C114.12,227.31 111.63,226.3 109.09,225.2 C106.639312,224.095038 104.362189,222.639835 102.33,220.88 C100.304915,219.109543 98.6469246,216.958912 97.45,214.55 C96.1202327,211.740633 95.4726611,208.656959 95.56,205.55 C95.5105987,202.244892 96.1936118,198.969844 97.56,195.96 C98.8644777,193.140453 100.79719,190.657002 103.21,188.7 C105.843626,186.60292 108.859457,185.03727 112.09,184.09 C115.904404,182.970107 119.864943,182.427428 123.84,182.48 C131.747142,182.320558 139.56727,184.153508 146.58,187.81 L141.58,201.45 C139.277752,200.275838 136.883053,199.29254 134.42,198.51 C131.344933,197.597837 128.146726,197.169385 124.94,197.24 C120.8,197.24 117.823333,197.81 116.01,198.95 C114.211364,200.079327 113.17224,202.100059 113.3,204.22 C113.259704,205.47809 113.608953,206.717923 114.3,207.77 C115.062282,208.817849 116.024019,209.704821 117.13,210.38 C118.466355,211.215952 119.879425,211.922487 121.35,212.49 C122.94,213.12 124.69,213.76 126.62,214.43 C130.62,215.91 134.093333,217.37 137.04,218.81 C139.752594,220.069449 142.244532,221.757754 144.42,223.81 C146.364928,225.71316 147.861206,228.0259 148.8,230.58 C149.831142,233.614113 150.318621,236.806422 150.24,240.01 C150.24,247.176667 147.726667,252.74 142.7,256.7 C137.673333,260.66 130.106667,262.62 120,262.58 C116.919177,262.603401 113.840825,262.399515 110.79,261.97 C108.341067,261.626543 105.916248,261.128888 103.53,260.48 C101.67725,259.980278 99.8626196,259.348667 98.1,258.59 C96.7903153,258.032968 95.5117746,257.405381 94.27,256.71 L99.11,243 C101.809641,244.42495 104.652026,245.561234 107.59,246.39 C111.638098,247.452629 115.816134,247.937429 120,247.83 Z" id="Path" fill="#FEF3F9"></path>
            <polygon id="Path" fill="#FEF3F9" points="162.87 261 162.87 184.17 214.77 184.17 214.77 198.7 180.17 198.7 180.17 213.78 210.89 213.78 210.89 228 180.17 228 180.17 246.5 217.32 246.5 217.32 261"></polygon>
            <path d="M141.34,47.09 C134.98,47.09 132.47,49.71 132.47,55.36 C132.47,55.88 131.47,55.88 131.47,55.36 C131.47,49.71 129.47,47.09 122.61,47.09 C122.1,47.09 122.1,46.09 122.61,46.09 C129.68,46.09 131.47,42.82 131.47,37.83 C131.47,37.31 132.47,37.31 132.47,37.83 C132.47,43.77 134.88,46.09 141.34,46.09 C141.85,46.1 141.85,47.09 141.34,47.09 Z" id="Path" fill="#F8E71C"></path>
            <path d="M187.22,14.39 C177.74,14.39 173.99,18.31 173.99,26.73 C173.99,27.51 172.52,27.51 172.52,26.73 C172.52,18.31 169.52,14.39 159.29,14.39 C158.52,14.39 158.52,12.91 159.29,12.91 C169.83,12.91 172.52,8.03 172.52,0.58 C172.52,-0.19 173.99,-0.19 173.99,0.58 C173.99,9.45 177.58,12.91 187.22,12.91 C188,12.91 188,14.39 187.22,14.39 Z" id="Path" fill="#F8E71C"></path>
            <path d="M163.94,87 C159.38,87 157.58,88.89 157.58,92.94 C157.58,93.31 156.87,93.31 156.87,92.94 C156.87,88.89 155.43,87 150.52,87 C150.15,87 150.15,86.29 150.52,86.29 C155.58,86.29 156.87,83.95 156.87,80.36 C156.87,79.99 157.58,79.99 157.58,80.36 C157.58,84.63 159.31,86.29 163.94,86.29 C164.31,86.25 164.31,87 163.94,87 Z" id="Path" fill="#F8E71C"></path>
        </g>
    </g>
</svg>