<?xml version="1.0" standalone="no"?>
<!DOCTYPE svg PUBLIC "-//W3C//DTD SVG 20010904//EN"
 "http://www.w3.org/TR/2001/REC-SVG-20010904/DTD/svg10.dtd">
<svg version="1.0" xmlns="http://www.w3.org/2000/svg"
 width="1200.000000pt" height="1200.000000pt" viewBox="0 0 1200.000000 1200.000000"
 preserveAspectRatio="xMidYMid meet">
<metadata>
Created by potrace 1.11, written by Peter Selinger 2001-2013
</metadata>
<g transform="translate(0.000000,1200.000000) scale(0.100000,-0.100000)"
fill="#000000" stroke="none">
<path d="M875 9814 c-53 -11 -140 -30 -152 -34 -5 -1 -12 -3 -18 -4 -5 -1 -23
-7 -38 -14 -16 -7 -32 -12 -37 -12 -9 0 -129 -60 -145 -72 -5 -5 -32 -23 -59
-40 -103 -67 -239 -220 -306 -343 -35 -66 -83 -185 -73 -185 3 0 1 -6 -5 -12
-5 -7 -13 -29 -17 -48 -3 -19 -8 -48 -11 -65 -8 -42 -12 -298 -5 -310 3 -5 6
-19 8 -30 7 -62 39 -165 76 -245 24 -51 92 -168 112 -190 65 -72 160 -164 205
-198 54 -39 210 -126 210 -117 0 3 17 -3 38 -14 20 -10 40 -19 45 -20 4 -1 8
-1 10 -2 1 0 11 -2 22 -4 11 -2 31 -6 45 -10 14 -3 41 -9 60 -13 45 -9 2461
-9 2515 -1 99 17 175 41 280 91 187 88 346 240 447 428 36 66 82 190 92 245 3
17 8 41 11 55 3 14 7 59 9 100 2 41 5 80 6 85 1 6 1 12 0 15 -1 3 -3 26 -4 51
-4 51 -17 127 -30 174 -2 6 -7 24 -11 40 -24 86 -102 239 -162 317 -45 58
-174 177 -238 219 -99 65 -243 127 -335 144 -14 3 -36 8 -50 12 -25 8 -2458
14 -2495 7z"/>
<path d="M5489 9816 c-2 -2 -24 -7 -49 -11 -296 -42 -578 -243 -722 -515 -64
-120 -108 -274 -113 -395 -2 -33 -4 -62 -5 -65 -1 -3 -2 -9 -1 -14 1 -6 4 -41
6 -78 2 -38 6 -76 9 -86 3 -9 8 -32 11 -51 14 -83 95 -274 143 -336 9 -13 24
-33 32 -46 26 -39 152 -164 210 -206 119 -88 274 -153 435 -181 88 -15 5760
-7 5760 8 0 1 9 4 50 14 191 44 398 181 538 355 73 91 165 288 182 391 4 25
10 54 13 65 7 29 9 295 2 295 -3 0 -6 10 -6 23 -1 82 -99 332 -160 402 -13 15
-24 31 -24 34 0 5 -14 21 -86 103 -97 108 -291 220 -456 263 -31 8 -69 18 -85
22 -29 8 -5676 17 -5684 9z"/>
<path d="M1178 6985 c-2 -2 -76 -7 -164 -9 -87 -3 -168 -7 -179 -9 -157 -29
-312 -96 -432 -186 -82 -62 -183 -162 -183 -180 0 -6 -3 -11 -8 -11 -8 0 -56
-72 -94 -140 -35 -66 -67 -147 -84 -215 -8 -33 -17 -69 -20 -80 -13 -47 -11
-274 2 -350 69 -389 350 -688 748 -798 l81 -22 5135 0 c2824 0 5156 4 5183 8
26 4 57 11 70 16 12 5 24 9 27 9 18 0 97 26 108 34 6 6 12 8 12 5 0 -10 155
75 210 116 59 43 175 156 202 197 10 14 31 44 47 68 17 23 27 42 23 42 -4 0
-2 4 3 8 15 10 60 105 84 177 63 191 64 431 0 628 -23 73 -90 208 -132 265
-47 65 -164 183 -227 229 -121 90 -272 152 -430 179 -38 7 -172 16 -200 14
-14 -1 -31 -2 -37 -2 -10 1 -366 1 -445 1 -7 0 -114 0 -238 0 -124 0 -232 0
-240 0 -8 0 -116 0 -240 0 -124 0 -232 0 -240 0 -8 0 -116 0 -240 0 -124 0
-232 0 -240 0 -8 0 -116 0 -240 0 -124 0 -232 0 -240 0 -8 0 -116 0 -240 0
-124 0 -232 0 -240 0 -8 0 -116 0 -240 0 -124 0 -232 0 -240 0 -8 0 -116 0
-240 0 -124 0 -232 0 -240 0 -8 0 -116 0 -240 0 -124 0 -232 0 -240 0 -8 0
-116 0 -240 0 -124 0 -232 0 -240 0 -8 0 -116 0 -240 0 -124 0 -232 0 -240 0
-76 0 -468 0 -480 0 -8 0 -55 0 -105 1 -49 0 -155 1 -235 1 -80 1 -152 1 -160
0 -8 0 -80 0 -160 0 -80 1 -152 1 -160 0 -8 0 -80 0 -160 0 -80 1 -152 1 -160
0 -8 0 -80 0 -160 0 -80 1 -152 1 -160 0 -8 0 -80 0 -160 0 -80 1 -152 1 -160
0 -8 0 -80 0 -160 0 -80 1 -152 1 -160 0 -8 0 -80 0 -160 0 -80 1 -152 1 -160
0 -8 0 -80 0 -160 0 -80 1 -152 1 -160 0 -8 0 -80 0 -160 0 -80 1 -152 1 -160
0 -8 0 -80 0 -160 0 -80 1 -152 1 -160 0 -8 0 -80 0 -160 0 -80 1 -152 1 -160
0 -62 -2 -305 1 -310 4 -4 3 -9 2 -12 0z"/>
<path d="M850 4169 c-30 -4 -86 -18 -125 -29 -38 -12 -76 -22 -82 -22 -7 -1
-13 -5 -13 -10 0 -4 -5 -8 -11 -8 -17 0 -162 -73 -179 -90 -3 -3 -30 -24 -61
-47 -50 -38 -169 -157 -169 -169 0 -3 -13 -22 -29 -42 -58 -74 -140 -258 -156
-349 -3 -18 -8 -48 -12 -65 -8 -42 -9 -261 -1 -308 14 -80 21 -108 40 -165 25
-76 94 -216 125 -251 13 -15 23 -30 23 -33 0 -5 14 -21 86 -103 68 -76 231
-185 335 -223 64 -24 167 -53 219 -62 25 -5 1159 -8 2520 -8 l2475 0 95 28
c52 15 101 29 108 29 6 1 12 5 12 10 0 4 6 8 14 8 46 0 228 120 317 209 117
118 196 245 248 399 56 165 63 394 17 562 -15 52 -27 100 -29 105 -1 6 -21 47
-44 92 -38 74 -51 96 -103 167 -37 51 -171 175 -235 217 -95 63 -200 110 -300
135 -33 8 -69 18 -80 22 -29 10 -4940 11 -5005 1z"/>
<path d="M7979 4176 c-2 -2 -31 -7 -64 -11 -32 -3 -67 -11 -77 -16 -10 -5 -18
-8 -18 -5 0 7 -127 -41 -189 -71 -31 -15 -83 -46 -116 -68 -60 -40 -207 -180
-235 -224 -8 -13 -19 -29 -25 -35 -51 -59 -165 -332 -149 -357 2 -4 0 -10 -4
-13 -11 -7 -16 -65 -15 -206 0 -111 3 -140 22 -225 19 -87 82 -243 105 -257 6
-4 8 -8 4 -8 -8 0 14 -34 78 -120 48 -64 147 -157 213 -200 25 -16 51 -33 57
-38 15 -13 154 -78 189 -88 66 -20 128 -35 165 -41 60 -10 3181 -10 3243 0 26
4 57 11 70 16 12 5 25 9 30 10 4 0 10 2 15 2 19 3 29 6 47 13 11 5 53 22 93
38 39 17 72 34 72 39 0 5 6 9 14 9 20 0 161 108 212 162 193 203 286 446 279
722 -5 196 -47 340 -147 506 -46 75 -42 71 -145 175 -83 86 -181 156 -278 200
-33 15 -64 28 -70 29 -5 1 -15 4 -20 8 -10 6 -111 34 -169 46 -33 7 -3180 15
-3187 8z"/>
</g>
</svg>
